<?xml version="1.0" encoding="utf-8" standalone="no"?>
<!DOCTYPE svg PUBLIC "-//W3C//DTD SVG 1.1//EN"
  "http://www.w3.org/Graphics/SVG/1.1/DTD/svg11.dtd">
<!-- Created with matplotlib (https://matplotlib.org/) -->
<svg height="449.28pt" version="1.1" viewBox="0 0 460.8 449.28" width="460.8pt" xmlns="http://www.w3.org/2000/svg" xmlns:xlink="http://www.w3.org/1999/xlink">
 <defs>
  <style type="text/css">
*{stroke-linecap:butt;stroke-linejoin:round;}
  </style>
 </defs>
 <g id="figure_1">
  <g id="patch_1">
   <path d="M 0 449.28 
L 460.8 449.28 
L 460.8 0 
L 0 0 
z
" style="fill:none;"/>
  </g>
  <g id="patch_2">
   <path d="M 7.2 442.08 
L 453.6 442.08 
L 453.6 7.2 
L 7.2 7.2 
z
" style="fill:none;"/>
  </g>
  <g id="pane3d_1">
   <g id="patch_3">
    <path d="M 384.431324 374.226543 
L 331.113905 266.149411 
L 335.15017 53.267781 
L 391.364731 145.3458 
" style="fill:#f2f2f2;opacity:0.5;stroke:#f2f2f2;stroke-linejoin:miter;"/>
   </g>
  </g>
  <g id="pane3d_2">
   <g id="patch_4">
    <path d="M 99.122615 283.829958 
L 331.113905 266.149411 
L 335.15017 53.267781 
L 93.174683 68.280207 
" style="fill:#e6e6e6;opacity:0.5;stroke:#e6e6e6;stroke-linejoin:miter;"/>
   </g>
  </g>
  <g id="pane3d_3">
   <g id="patch_5">
    <path d="M 131.046244 395.438039 
L 384.431324 374.226543 
L 331.113905 266.149411 
L 99.122615 283.829958 
" style="fill:#ececec;opacity:0.5;stroke:#ececec;stroke-linejoin:miter;"/>
   </g>
  </g>
  <g id="axis3d_1">
   <g id="line2d_1">
    <path d="M 384.431324 374.226543 
L 131.046244 395.438039 
" style="fill:none;stroke:#000000;stroke-linecap:square;stroke-width:0.8;"/>
   </g>
   <g id="text_1">
    <!-- $\mathrm{Re}\, z$ -->
    <defs>
     <path d="M 44.390625 34.1875 
Q 47.5625 33.109375 50.5625 29.59375 
Q 53.5625 26.078125 56.59375 19.921875 
L 66.609375 0 
L 56 0 
L 46.6875 18.703125 
Q 43.0625 26.03125 39.671875 28.421875 
Q 36.28125 30.8125 30.421875 30.8125 
L 19.671875 30.8125 
L 19.671875 0 
L 9.8125 0 
L 9.8125 72.90625 
L 32.078125 72.90625 
Q 44.578125 72.90625 50.734375 67.671875 
Q 56.890625 62.453125 56.890625 51.90625 
Q 56.890625 45.015625 53.6875 40.46875 
Q 50.484375 35.9375 44.390625 34.1875 
z
M 19.671875 64.796875 
L 19.671875 38.921875 
L 32.078125 38.921875 
Q 39.203125 38.921875 42.84375 42.21875 
Q 46.484375 45.515625 46.484375 51.90625 
Q 46.484375 58.296875 42.84375 61.546875 
Q 39.203125 64.796875 32.078125 64.796875 
z
" id="DejaVuSans-82"/>
     <path d="M 56.203125 29.59375 
L 56.203125 25.203125 
L 14.890625 25.203125 
Q 15.484375 15.921875 20.484375 11.0625 
Q 25.484375 6.203125 34.421875 6.203125 
Q 39.59375 6.203125 44.453125 7.46875 
Q 49.3125 8.734375 54.109375 11.28125 
L 54.109375 2.78125 
Q 49.265625 0.734375 44.1875 -0.34375 
Q 39.109375 -1.421875 33.890625 -1.421875 
Q 20.796875 -1.421875 13.15625 6.1875 
Q 5.515625 13.8125 5.515625 26.8125 
Q 5.515625 40.234375 12.765625 48.109375 
Q 20.015625 56 32.328125 56 
Q 43.359375 56 49.78125 48.890625 
Q 56.203125 41.796875 56.203125 29.59375 
z
M 47.21875 32.234375 
Q 47.125 39.59375 43.09375 43.984375 
Q 39.0625 48.390625 32.421875 48.390625 
Q 24.90625 48.390625 20.390625 44.140625 
Q 15.875 39.890625 15.1875 32.171875 
z
" id="DejaVuSans-101"/>
     <path d="M 11.625 54.6875 
L 54.296875 54.6875 
L 52.6875 46.484375 
L 11.53125 7.171875 
L 45.515625 7.171875 
L 44.09375 0 
L -0.296875 0 
L 1.3125 8.203125 
L 42.484375 47.515625 
L 10.203125 47.515625 
z
" id="DejaVuSans-Oblique-122"/>
    </defs>
    <g transform="translate(254.091926 425.599329)rotate(-4.785215)scale(0.1 -0.1)">
     <use transform="translate(0 0.09375)" xlink:href="#DejaVuSans-82"/>
     <use transform="translate(69.482422 0.09375)" xlink:href="#DejaVuSans-101"/>
     <use transform="translate(147.241536 0.09375)" xlink:href="#DejaVuSans-Oblique-122"/>
    </g>
   </g>
   <g id="Line3DCollection_1">
    <path d="M 147.195584 394.086137 
L 113.888204 282.704642 
L 108.585249 67.324119 
" style="fill:none;stroke:#b0b0b0;stroke-width:0.8;"/>
    <path d="M 203.147963 389.402224 
L 165.067604 278.804151 
L 161.990207 64.010816 
" style="fill:none;stroke:#b0b0b0;stroke-width:0.8;"/>
    <path d="M 258.689616 384.752694 
L 215.904003 274.929801 
L 215.02187 60.720673 
" style="fill:none;stroke:#b0b0b0;stroke-width:0.8;"/>
    <path d="M 313.825048 380.13717 
L 266.40084 271.08133 
L 267.684137 57.453448 
" style="fill:none;stroke:#b0b0b0;stroke-width:0.8;"/>
    <path d="M 368.558699 375.55528 
L 316.561503 267.25848 
L 319.980855 54.208902 
" style="fill:none;stroke:#b0b0b0;stroke-width:0.8;"/>
   </g>
   <g id="xtick_1">
    <g id="line2d_2">
     <path d="M 146.903766 393.110284 
L 147.780566 396.042348 
" style="fill:none;stroke:#000000;stroke-linecap:square;stroke-width:0.8;"/>
    </g>
    <g id="text_2">
     <!-- −10 -->
     <defs>
      <path d="M 10.59375 35.5 
L 73.1875 35.5 
L 73.1875 27.203125 
L 10.59375 27.203125 
z
" id="DejaVuSans-8722"/>
      <path d="M 12.40625 8.296875 
L 28.515625 8.296875 
L 28.515625 63.921875 
L 10.984375 60.40625 
L 10.984375 69.390625 
L 28.421875 72.90625 
L 38.28125 72.90625 
L 38.28125 8.296875 
L 54.390625 8.296875 
L 54.390625 0 
L 12.40625 0 
z
" id="DejaVuSans-49"/>
      <path d="M 31.78125 66.40625 
Q 24.171875 66.40625 20.328125 58.90625 
Q 16.5 51.421875 16.5 36.375 
Q 16.5 21.390625 20.328125 13.890625 
Q 24.171875 6.390625 31.78125 6.390625 
Q 39.453125 6.390625 43.28125 13.890625 
Q 47.125 21.390625 47.125 36.375 
Q 47.125 51.421875 43.28125 58.90625 
Q 39.453125 66.40625 31.78125 66.40625 
z
M 31.78125 74.21875 
Q 44.046875 74.21875 50.515625 64.515625 
Q 56.984375 54.828125 56.984375 36.375 
Q 56.984375 17.96875 50.515625 8.265625 
Q 44.046875 -1.421875 31.78125 -1.421875 
Q 19.53125 -1.421875 13.0625 8.265625 
Q 6.59375 17.96875 6.59375 36.375 
Q 6.59375 54.828125 13.0625 64.515625 
Q 19.53125 74.21875 31.78125 74.21875 
z
" id="DejaVuSans-48"/>
     </defs>
     <g transform="translate(138.680923 418.929636)scale(0.1 -0.1)">
      <use xlink:href="#DejaVuSans-8722"/>
      <use x="83.789062" xlink:href="#DejaVuSans-49"/>
      <use x="147.412109" xlink:href="#DejaVuSans-48"/>
     </g>
    </g>
   </g>
   <g id="xtick_2">
    <g id="line2d_3">
     <path d="M 202.814434 388.433545 
L 203.816555 391.344038 
" style="fill:none;stroke:#000000;stroke-linecap:square;stroke-width:0.8;"/>
    </g>
    <g id="text_3">
     <!-- −5 -->
     <defs>
      <path d="M 10.796875 72.90625 
L 49.515625 72.90625 
L 49.515625 64.59375 
L 19.828125 64.59375 
L 19.828125 46.734375 
Q 21.96875 47.46875 24.109375 47.828125 
Q 26.265625 48.1875 28.421875 48.1875 
Q 40.625 48.1875 47.75 41.5 
Q 54.890625 34.8125 54.890625 23.390625 
Q 54.890625 11.625 47.5625 5.09375 
Q 40.234375 -1.421875 26.90625 -1.421875 
Q 22.3125 -1.421875 17.546875 -0.640625 
Q 12.796875 0.140625 7.71875 1.703125 
L 7.71875 11.625 
Q 12.109375 9.234375 16.796875 8.0625 
Q 21.484375 6.890625 26.703125 6.890625 
Q 35.15625 6.890625 40.078125 11.328125 
Q 45.015625 15.765625 45.015625 23.390625 
Q 45.015625 31 40.078125 35.4375 
Q 35.15625 39.890625 26.703125 39.890625 
Q 22.75 39.890625 18.8125 39.015625 
Q 14.890625 38.140625 10.796875 36.28125 
z
" id="DejaVuSans-53"/>
     </defs>
     <g transform="translate(197.948589 414.170184)scale(0.1 -0.1)">
      <use xlink:href="#DejaVuSans-8722"/>
      <use x="83.789062" xlink:href="#DejaVuSans-53"/>
     </g>
    </g>
   </g>
   <g id="xtick_3">
    <g id="line2d_4">
     <path d="M 258.314995 383.79111 
L 259.440575 386.680269 
" style="fill:none;stroke:#000000;stroke-linecap:square;stroke-width:0.8;"/>
    </g>
    <g id="text_4">
     <!-- 0 -->
     <g transform="translate(257.812101 409.445757)scale(0.1 -0.1)">
      <use xlink:href="#DejaVuSans-48"/>
     </g>
    </g>
   </g>
   <g id="xtick_4">
    <g id="line2d_5">
     <path d="M 313.409943 379.182603 
L 314.657152 382.050662 
" style="fill:none;stroke:#000000;stroke-linecap:square;stroke-width:0.8;"/>
    </g>
    <g id="text_5">
     <!-- 5 -->
     <g transform="translate(313.077559 404.755971)scale(0.1 -0.1)">
      <use xlink:href="#DejaVuSans-53"/>
     </g>
    </g>
   </g>
   <g id="xtick_5">
    <g id="line2d_6">
     <path d="M 368.10371 374.607654 
L 369.470748 377.454843 
" style="fill:none;stroke:#000000;stroke-linecap:square;stroke-width:0.8;"/>
    </g>
    <g id="text_6">
     <!-- 10 -->
     <g transform="translate(364.758031 400.100445)scale(0.1 -0.1)">
      <use xlink:href="#DejaVuSans-49"/>
      <use x="63.623047" xlink:href="#DejaVuSans-48"/>
     </g>
    </g>
   </g>
  </g>
  <g id="axis3d_2">
   <g id="line2d_7">
    <path d="M 99.122615 283.829958 
L 131.046244 395.438039 
" style="fill:none;stroke:#000000;stroke-linecap:square;stroke-width:0.8;"/>
   </g>
   <g id="text_7">
    <!-- $\mathrm{Im}\, z$ -->
    <defs>
     <path d="M 9.8125 72.90625 
L 19.671875 72.90625 
L 19.671875 0 
L 9.8125 0 
z
" id="DejaVuSans-73"/>
     <path d="M 52 44.1875 
Q 55.375 50.25 60.0625 53.125 
Q 64.75 56 71.09375 56 
Q 79.640625 56 84.28125 50.015625 
Q 88.921875 44.046875 88.921875 33.015625 
L 88.921875 0 
L 79.890625 0 
L 79.890625 32.71875 
Q 79.890625 40.578125 77.09375 44.375 
Q 74.3125 48.1875 68.609375 48.1875 
Q 61.625 48.1875 57.5625 43.546875 
Q 53.515625 38.921875 53.515625 30.90625 
L 53.515625 0 
L 44.484375 0 
L 44.484375 32.71875 
Q 44.484375 40.625 41.703125 44.40625 
Q 38.921875 48.1875 33.109375 48.1875 
Q 26.21875 48.1875 22.15625 43.53125 
Q 18.109375 38.875 18.109375 30.90625 
L 18.109375 0 
L 9.078125 0 
L 9.078125 54.6875 
L 18.109375 54.6875 
L 18.109375 46.1875 
Q 21.1875 51.21875 25.484375 53.609375 
Q 29.78125 56 35.6875 56 
Q 41.65625 56 45.828125 52.96875 
Q 50 49.953125 52 44.1875 
z
" id="DejaVuSans-109"/>
    </defs>
    <g transform="translate(82.847647 353.76146)rotate(-285.962294)scale(0.1 -0.1)">
     <use transform="translate(0 0.09375)" xlink:href="#DejaVuSans-73"/>
     <use transform="translate(29.445312 0.09375)" xlink:href="#DejaVuSans-109"/>
     <use transform="translate(143.093098 0.09375)" xlink:href="#DejaVuSans-Oblique-122"/>
    </g>
   </g>
   <g id="Line3DCollection_2">
    <path d="M 387.471789 138.96926 
L 380.752863 366.770115 
L 128.840777 387.727514 
" style="fill:none;stroke:#b0b0b0;stroke-width:0.8;"/>
    <path d="M 374.433848 117.613445 
L 368.418279 341.767284 
L 121.448674 361.884009 
" style="fill:none;stroke:#b0b0b0;stroke-width:0.8;"/>
    <path d="M 361.932541 97.136622 
L 356.569685 317.749578 
L 114.352533 337.075218 
" style="fill:none;stroke:#b0b0b0;stroke-width:0.8;"/>
    <path d="M 349.935405 77.485619 
L 345.178913 294.659902 
L 107.534929 313.24022 
" style="fill:none;stroke:#b0b0b0;stroke-width:0.8;"/>
    <path d="M 338.412543 58.611464 
L 334.219932 272.445487 
L 100.979779 290.322783 
" style="fill:none;stroke:#b0b0b0;stroke-width:0.8;"/>
   </g>
   <g id="xtick_6">
    <g id="line2d_8">
     <path d="M 130.889745 387.557054 
L 124.741185 388.068573 
" style="fill:none;stroke:#000000;stroke-linecap:square;stroke-width:0.8;"/>
    </g>
    <g id="text_8">
     <!-- −10 -->
     <g transform="translate(105.714514 407.419886)scale(0.1 -0.1)">
      <use xlink:href="#DejaVuSans-8722"/>
      <use x="83.789062" xlink:href="#DejaVuSans-49"/>
      <use x="147.412109" xlink:href="#DejaVuSans-48"/>
     </g>
    </g>
   </g>
   <g id="xtick_7">
    <g id="line2d_9">
     <path d="M 123.456766 361.720441 
L 117.430897 362.211274 
" style="fill:none;stroke:#000000;stroke-linecap:square;stroke-width:0.8;"/>
    </g>
    <g id="text_9">
     <!-- −5 -->
     <g transform="translate(101.770447 381.365634)scale(0.1 -0.1)">
      <use xlink:href="#DejaVuSans-8722"/>
      <use x="83.789062" xlink:href="#DejaVuSans-53"/>
     </g>
    </g>
   </g>
   <g id="xtick_8">
    <g id="line2d_10">
     <path d="M 116.321349 336.918133 
L 110.413372 337.389509 
" style="fill:none;stroke:#000000;stroke-linecap:square;stroke-width:0.8;"/>
    </g>
    <g id="text_10">
     <!-- 0 -->
     <g transform="translate(99.119866 356.353112)scale(0.1 -0.1)">
      <use xlink:href="#DejaVuSans-48"/>
     </g>
    </g>
   </g>
   <g id="xtick_9">
    <g id="line2d_11">
     <path d="M 109.465975 313.08924 
L 103.671368 313.542294 
" style="fill:none;stroke:#000000;stroke-linecap:square;stroke-width:0.8;"/>
    </g>
    <g id="text_11">
     <!-- 5 -->
     <g transform="translate(92.547582 332.321068)scale(0.1 -0.1)">
      <use xlink:href="#DejaVuSans-53"/>
     </g>
    </g>
   </g>
   <g id="xtick_10">
    <g id="line2d_12">
     <path d="M 102.874475 290.177559 
L 97.188972 290.613339 
" style="fill:none;stroke:#000000;stroke-linecap:square;stroke-width:0.8;"/>
    </g>
    <g id="text_12">
     <!-- 10 -->
     <g transform="translate(83.046726 309.212957)scale(0.1 -0.1)">
      <use xlink:href="#DejaVuSans-49"/>
      <use x="63.623047" xlink:href="#DejaVuSans-48"/>
     </g>
    </g>
   </g>
  </g>
  <g id="axis3d_3">
   <g id="line2d_13">
    <path d="M 99.122615 283.829958 
L 93.174683 68.280207 
" style="fill:none;stroke:#000000;stroke-linecap:square;stroke-width:0.8;"/>
   </g>
   <g id="text_13">
    <!-- $\mathrm{Re}\, z^{1/2}$ -->
    <defs>
     <path d="M 25.390625 72.90625 
L 33.6875 72.90625 
L 8.296875 -9.28125 
L 0 -9.28125 
z
" id="DejaVuSans-47"/>
     <path d="M 19.1875 8.296875 
L 53.609375 8.296875 
L 53.609375 0 
L 7.328125 0 
L 7.328125 8.296875 
Q 12.9375 14.109375 22.625 23.890625 
Q 32.328125 33.6875 34.8125 36.53125 
Q 39.546875 41.84375 41.421875 45.53125 
Q 43.3125 49.21875 43.3125 52.78125 
Q 43.3125 58.59375 39.234375 62.25 
Q 35.15625 65.921875 28.609375 65.921875 
Q 23.96875 65.921875 18.8125 64.3125 
Q 13.671875 62.703125 7.8125 59.421875 
L 7.8125 69.390625 
Q 13.765625 71.78125 18.9375 73 
Q 24.125 74.21875 28.421875 74.21875 
Q 39.75 74.21875 46.484375 68.546875 
Q 53.21875 62.890625 53.21875 53.421875 
Q 53.21875 48.921875 51.53125 44.890625 
Q 49.859375 40.875 45.40625 35.40625 
Q 44.1875 33.984375 37.640625 27.21875 
Q 31.109375 20.453125 19.1875 8.296875 
z
" id="DejaVuSans-50"/>
    </defs>
    <g transform="translate(63.823937 154.007618)rotate(-271.580633)scale(0.1 -0.1)">
     <use transform="translate(0 0.765625)" xlink:href="#DejaVuSans-82"/>
     <use transform="translate(69.482422 0.765625)" xlink:href="#DejaVuSans-101"/>
     <use transform="translate(147.241536 0.765625)" xlink:href="#DejaVuSans-Oblique-122"/>
     <use transform="translate(204.197916 39.046875)scale(0.7)" xlink:href="#DejaVuSans-49"/>
     <use transform="translate(248.734049 39.046875)scale(0.7)" xlink:href="#DejaVuSans-47"/>
     <use transform="translate(272.285221 39.046875)scale(0.7)" xlink:href="#DejaVuSans-50"/>
    </g>
   </g>
   <g id="Line3DCollection_3">
    <path d="M 99.008501 279.694518 
L 331.191393 262.062518 
L 384.563905 369.849865 
" style="fill:none;stroke:#b0b0b0;stroke-width:0.8;"/>
    <path d="M 97.624185 229.527684 
L 332.131241 212.492845 
L 386.17361 316.711443 
" style="fill:none;stroke:#b0b0b0;stroke-width:0.8;"/>
    <path d="M 96.211696 178.339872 
L 333.089919 161.930029 
L 387.818683 262.405452 
" style="fill:none;stroke:#b0b0b0;stroke-width:0.8;"/>
    <path d="M 94.770165 126.099593 
L 334.067998 110.343919 
L 389.500303 206.892983 
" style="fill:none;stroke:#b0b0b0;stroke-width:0.8;"/>
    <path d="M 93.298687 72.774051 
L 335.066075 57.703134 
L 391.219703 150.13338 
" style="fill:none;stroke:#b0b0b0;stroke-width:0.8;"/>
   </g>
   <g id="xtick_11">
    <g id="line2d_14">
     <path d="M 100.894473 279.551297 
L 95.235155 279.981066 
" style="fill:none;stroke:#000000;stroke-linecap:square;stroke-width:0.8;"/>
    </g>
    <g id="text_14">
     <!-- −6 -->
     <defs>
      <path d="M 33.015625 40.375 
Q 26.375 40.375 22.484375 35.828125 
Q 18.609375 31.296875 18.609375 23.390625 
Q 18.609375 15.53125 22.484375 10.953125 
Q 26.375 6.390625 33.015625 6.390625 
Q 39.65625 6.390625 43.53125 10.953125 
Q 47.40625 15.53125 47.40625 23.390625 
Q 47.40625 31.296875 43.53125 35.828125 
Q 39.65625 40.375 33.015625 40.375 
z
M 52.59375 71.296875 
L 52.59375 62.3125 
Q 48.875 64.0625 45.09375 64.984375 
Q 41.3125 65.921875 37.59375 65.921875 
Q 27.828125 65.921875 22.671875 59.328125 
Q 17.53125 52.734375 16.796875 39.40625 
Q 19.671875 43.65625 24.015625 45.921875 
Q 28.375 48.1875 33.59375 48.1875 
Q 44.578125 48.1875 50.953125 41.515625 
Q 57.328125 34.859375 57.328125 23.390625 
Q 57.328125 12.15625 50.6875 5.359375 
Q 44.046875 -1.421875 33.015625 -1.421875 
Q 20.359375 -1.421875 13.671875 8.265625 
Q 6.984375 17.96875 6.984375 36.375 
Q 6.984375 53.65625 15.1875 63.9375 
Q 23.390625 74.21875 37.203125 74.21875 
Q 40.921875 74.21875 44.703125 73.484375 
Q 48.484375 72.75 52.59375 71.296875 
z
" id="DejaVuSans-54"/>
     </defs>
     <g transform="translate(78.410742 283.117042)scale(0.1 -0.1)">
      <use xlink:href="#DejaVuSans-8722"/>
      <use x="83.789062" xlink:href="#DejaVuSans-54"/>
     </g>
    </g>
   </g>
   <g id="xtick_12">
    <g id="line2d_15">
     <path d="M 99.529326 229.389292 
L 93.812473 229.804571 
" style="fill:none;stroke:#000000;stroke-linecap:square;stroke-width:0.8;"/>
    </g>
    <g id="text_15">
     <!-- −3 -->
     <defs>
      <path d="M 40.578125 39.3125 
Q 47.65625 37.796875 51.625 33 
Q 55.609375 28.21875 55.609375 21.1875 
Q 55.609375 10.40625 48.1875 4.484375 
Q 40.765625 -1.421875 27.09375 -1.421875 
Q 22.515625 -1.421875 17.65625 -0.515625 
Q 12.796875 0.390625 7.625 2.203125 
L 7.625 11.71875 
Q 11.71875 9.328125 16.59375 8.109375 
Q 21.484375 6.890625 26.8125 6.890625 
Q 36.078125 6.890625 40.9375 10.546875 
Q 45.796875 14.203125 45.796875 21.1875 
Q 45.796875 27.640625 41.28125 31.265625 
Q 36.765625 34.90625 28.71875 34.90625 
L 20.21875 34.90625 
L 20.21875 43.015625 
L 29.109375 43.015625 
Q 36.375 43.015625 40.234375 45.921875 
Q 44.09375 48.828125 44.09375 54.296875 
Q 44.09375 59.90625 40.109375 62.90625 
Q 36.140625 65.921875 28.71875 65.921875 
Q 24.65625 65.921875 20.015625 65.03125 
Q 15.375 64.15625 9.8125 62.3125 
L 9.8125 71.09375 
Q 15.4375 72.65625 20.34375 73.4375 
Q 25.25 74.21875 29.59375 74.21875 
Q 40.828125 74.21875 47.359375 69.109375 
Q 53.90625 64.015625 53.90625 55.328125 
Q 53.90625 49.265625 50.4375 45.09375 
Q 46.96875 40.921875 40.578125 39.3125 
z
" id="DejaVuSans-51"/>
     </defs>
     <g transform="translate(76.898721 233.091166)scale(0.1 -0.1)">
      <use xlink:href="#DejaVuSans-8722"/>
      <use x="83.789062" xlink:href="#DejaVuSans-51"/>
     </g>
    </g>
   </g>
   <g id="xtick_13">
    <g id="line2d_16">
     <path d="M 98.136399 178.206537 
L 92.36083 178.606642 
" style="fill:none;stroke:#000000;stroke-linecap:square;stroke-width:0.8;"/>
    </g>
    <g id="text_16">
     <!-- 0 -->
     <g transform="translate(79.545886 182.050928)scale(0.1 -0.1)">
      <use xlink:href="#DejaVuSans-48"/>
     </g>
    </g>
   </g>
   <g id="xtick_14">
    <g id="line2d_17">
     <path d="M 96.714837 125.971553 
L 90.879333 126.35577 
" style="fill:none;stroke:#000000;stroke-linecap:square;stroke-width:0.8;"/>
    </g>
    <g id="text_17">
     <!-- 3 -->
     <g transform="translate(77.971606 129.965163)scale(0.1 -0.1)">
      <use xlink:href="#DejaVuSans-51"/>
     </g>
    </g>
   </g>
   <g id="xtick_15">
    <g id="line2d_18">
     <path d="M 95.263746 72.651556 
L 89.36705 73.019135 
" style="fill:none;stroke:#000000;stroke-linecap:square;stroke-width:0.8;"/>
    </g>
    <g id="text_18">
     <!-- 6 -->
     <g transform="translate(76.364744 76.801411)scale(0.1 -0.1)">
      <use xlink:href="#DejaVuSans-54"/>
     </g>
    </g>
   </g>
  </g>
  <g id="axes_1">
   <g id="line2d_19">
    <path clip-path="url(#p67f97fa1d1)" d="M 236.321354 218.771307 
L 236.321354 218.771307 
L 236.321354 218.771307 
L 236.321354 218.771307 
L 236.321354 218.771307 
L 236.321354 218.771307 
L 236.321354 218.771307 
L 236.321354 218.771307 
L 236.321354 218.771307 
L 236.321354 218.771307 
L 236.321354 218.771307 
L 236.321354 218.771307 
L 236.321354 218.771307 
L 236.321354 218.771307 
L 236.321354 218.771307 
L 236.321354 218.771307 
L 236.321354 218.771307 
L 236.321354 218.771307 
L 236.321354 218.771307 
L 236.321354 218.771307 
L 236.321354 218.771307 
L 236.321354 218.771307 
L 236.321354 218.771307 
L 236.321354 218.771307 
L 236.321354 218.771307 
L 236.321354 218.771307 
L 236.321354 218.771307 
L 236.321354 218.771307 
L 236.321354 218.771307 
L 236.321354 218.771307 
L 236.321354 218.771307 
L 236.321354 218.771307 
L 236.321354 218.771307 
L 236.321354 218.771307 
L 236.321354 218.771307 
L 236.321354 218.771307 
L 236.321354 218.771307 
L 236.321354 218.771307 
L 236.321354 218.771307 
L 236.321354 218.771307 
L 236.321354 218.771307 
L 236.321354 218.771307 
L 236.321354 218.771307 
L 236.321354 218.771307 
L 236.321354 218.771307 
L 236.321354 218.771307 
L 236.321354 218.771307 
L 236.321354 218.771307 
L 236.321354 218.771307 
L 236.321354 218.771307 
" style="fill:none;stroke:#000000;stroke-linecap:square;stroke-width:0.8;"/>
   </g>
   <g id="line2d_20">
    <path clip-path="url(#p67f97fa1d1)" d="M 248.370191 199.127544 
L 247.424825 198.076395 
L 245.756776 197.46853 
L 243.476754 197.364606 
L 240.734281 197.807091 
L 237.707871 198.817215 
L 234.593635 200.392986 
L 231.592982 202.508342 
L 228.900059 205.113495 
L 226.689599 208.13648 
L 225.105834 211.485885 
L 224.253096 215.054689 
L 224.188722 218.725088 
L 224.918811 222.374089 
L 226.397221 225.879604 
L 228.528063 229.126674 
L 231.171669 232.01342 
L 234.153726 234.45628 
L 237.277003 236.394134 
L 240.334805 237.790972 
L 243.125144 238.636896 
L 245.464508 238.947388 
L 247.200179 238.760935 
L 248.220209 238.13524 
L 248.460378 237.142373 
L 247.907796 235.863268 
L 246.601031 234.381992 
L 244.626967 232.780217 
L 242.114733 231.132221 
L 239.227215 229.500721 
L 236.150709 227.933733 
L 233.083346 226.462589 
L 230.222871 225.101178 
L 227.754428 223.846416 
L 225.838964 222.679895 
L 224.602873 221.570609 
L 224.129527 220.478603 
L 224.453277 219.359326 
L 225.556448 218.168417 
L 227.369699 216.866587 
L 229.775927 215.424236 
L 232.617614 213.825435 
L 235.707209 212.070915 
L 238.839852 210.179802 
L 241.807483 208.189896 
L 244.413236 206.156474 
L 246.484977 204.149678 
L 247.886935 202.250705 
L 248.528582 200.547106 
L 248.370191 199.127544 
" style="fill:none;stroke:#000000;stroke-linecap:square;stroke-width:0.8;"/>
   </g>
   <g id="line2d_21">
    <path clip-path="url(#p67f97fa1d1)" d="M 260.437218 190.457357 
L 258.519895 188.285184 
L 255.165671 186.82243 
L 250.599777 186.190968 
L 245.121665 186.479402 
L 239.085424 187.737668 
L 232.877874 189.97351 
L 226.895443 193.15083 
L 221.520755 197.18997 
L 217.099817 201.969959 
L 213.920738 207.332821 
L 212.195023 213.089958 
L 212.042631 219.0306 
L 213.482045 224.932081 
L 216.426562 230.571547 
L 220.687707 235.738411 
L 225.986201 240.246653 
L 231.970138 243.945937 
L 238.239277 246.730476 
L 244.37351 248.544758 
L 249.963041 249.385524 
L 254.637558 249.299826 
L 258.09183 248.379421 
L 260.105677 246.752139 
L 260.556989 244.571176 
L 259.427318 242.003323 
L 256.800285 239.217163 
L 252.853627 236.372084 
L 247.846031 233.608774 
L 242.099983 231.041601 
L 235.98182 228.75314 
L 229.88002 226.790908 
L 224.182617 225.166339 
L 219.25456 223.855933 
L 215.415834 222.804524 
L 212.921285 221.930549 
L 211.943251 221.133158 
L 212.558269 220.300869 
L 214.73917 219.321347 
L 218.353793 218.091694 
L 223.171153 216.528483 
L 228.875306 214.576663 
L 235.086336 212.216473 
L 241.387031 209.467608 
L 247.353021 206.390165 
L 252.583654 203.082203 
L 256.730779 199.674172 
L 259.522885 196.320761 
L 260.782703 193.190977 
L 260.437218 190.457357 
" style="fill:none;stroke:#000000;stroke-linecap:square;stroke-width:0.8;"/>
   </g>
   <g id="line2d_22">
    <path clip-path="url(#p67f97fa1d1)" d="M 272.509268 183.598472 
L 269.594554 180.305836 
L 264.538215 177.961451 
L 257.683406 176.745748 
L 249.479481 176.791387 
L 240.452768 178.176256 
L 231.175116 180.918931 
L 222.231428 184.976456 
L 214.187059 190.244408 
L 207.555796 196.55935 
L 202.769287 203.703924 
L 200.149155 211.414892 
L 199.88347 219.394353 
L 202.009738 227.324118 
L 206.406697 234.882831 
L 212.796999 241.764907 
L 220.762071 247.699855 
L 229.769176 252.470159 
L 239.209086 255.925775 
L 248.441193 257.99353 
L 256.841662 258.680247 
L 263.849735 258.069275 
L 269.007617 256.310917 
L 271.990457 253.608052 
L 272.624474 250.198685 
L 270.892909 246.337329 
L 266.93085 242.276911 
L 261.010887 238.252541 
L 253.52186 234.468008 
L 244.942921 231.085398 
L 235.814672 228.217952 
L 226.70868 225.926041 
L 218.196221 224.216105 
L 210.816887 223.042434 
L 205.0477 222.311715 
L 201.273684 221.89035 
L 199.761289 221.614479 
L 200.636642 221.302532 
L 203.87097 220.769853 
L 209.275668 219.844575 
L 216.50905 218.383577 
L 225.095834 216.287031 
L 234.458915 213.50996 
L 243.961231 210.069395 
L 252.953914 206.046153 
L 260.82581 201.580956 
L 267.049233 196.865321 
L 271.217434 192.128328 
L 273.070641 187.620791 
L 272.509268 183.598472 
" style="fill:none;stroke:#000000;stroke-linecap:square;stroke-width:0.8;"/>
   </g>
   <g id="line2d_23">
    <path clip-path="url(#p67f97fa1d1)" d="M 284.58168 177.679708 
L 280.644629 173.272561 
L 273.871133 170.039565 
L 264.725449 168.216869 
L 253.806565 167.978706 
L 241.809585 169.429453 
L 229.485666 172.598604 
L 217.601674 177.438201 
L 206.899987 183.82258 
L 198.058672 191.550598 
L 191.652538 200.350838 
L 188.116206 209.890476 
L 187.711367 219.788488 
L 190.501301 229.633536 
L 196.336407 239.006299 
L 204.854407 247.505141 
L 215.497921 254.77312 
L 227.550155 260.523562 
L 240.186782 264.561118 
L 252.539377 266.79549 
L 263.76361 267.245896 
L 273.104497 266.03572 
L 279.951606 263.378231 
L 283.87902 259.555505 
L 284.667536 254.893402 
L 282.309298 249.73553 
L 276.997194 244.418739 
L 269.102557 239.251904 
L 259.144962 234.49897 
L 247.757401 230.366491 
L 235.649204 226.995458 
L 223.568061 224.45697 
L 212.261687 222.751344 
L 202.439263 221.810429 
L 194.732778 221.503085 
L 189.658939 221.644011 
L 187.583192 222.006115 
L 188.688453 222.336492 
L 192.952155 222.37567 
L 200.135673 221.879208 
L 209.789907 220.640044 
L 221.279394 218.509397 
L 233.824982 215.413736 
L 246.56215 211.365491 
L 258.60923 206.465889 
L 269.137839 200.899373 
L 277.437381 194.920354 
L 282.966626 188.834103 
L 285.387812 182.974282 
L 284.58168 177.679708 
" style="fill:none;stroke:#000000;stroke-linecap:square;stroke-width:0.8;"/>
   </g>
   <g id="line2d_24">
    <path clip-path="url(#p67f97fa1d1)" d="M 296.65176 172.363391 
L 291.667764 166.849415 
L 283.162674 162.728121 
L 271.724823 160.288529 
L 258.102406 159.743846 
L 243.155749 161.22326 
L 227.809629 164.766887 
L 213.006434 170.323082 
L 199.65992 177.747783 
L 188.608945 186.806135 
L 180.571023 197.177188 
L 176.096579 208.462832 
L 175.526387 220.202219 
L 178.956319 231.892588 
L 186.214812 243.016565 
L 196.858806 253.074782 
L 210.192749 261.621225 
L 225.312575 268.297455 
L 241.172616 272.861194 
L 256.669109 275.205069 
L 270.730591 275.362611 
L 282.403995 273.500657 
L 290.92621 269.899559 
L 295.773945 264.924452 
L 296.688894 258.991789 
L 293.679303 252.535394 
L 287.002086 245.975449 
L 277.131102 239.692605 
L 264.717175 234.008155 
L 250.544366 229.170158 
L 235.48537 225.344848 
L 220.457262 222.612427 
L 206.377606 220.966525 
L 194.120206 220.316929 
L 184.469879 220.495655 
L 178.076345 221.266752 
L 175.4087 222.340433 
L 176.713698 223.391985 
L 181.982757 224.085378 
L 190.933753 224.100667 
L 203.013597 223.163181 
L 217.425883 221.071515 
L 233.184519 217.720699 
L 249.189777 213.117094 
L 264.318736 207.382496 
L 277.518997 200.746617 
L 287.89376 193.529042 
L 294.76829 186.113414 
L 297.731584 178.91757 
L 296.65176 172.363391 
" style="fill:none;stroke:#000000;stroke-linecap:square;stroke-width:0.8;"/>
   </g>
   <g id="line2d_25">
    <path clip-path="url(#p67f97fa1d1)" d="M 308.717693 167.476225 
L 302.662418 160.863803 
L 292.411767 155.858066 
L 278.680947 152.798078 
L 262.366782 151.933413 
L 244.491225 153.416303 
L 226.147022 157.297015 
L 208.445746 163.521236 
L 192.466961 171.928958 
L 179.206828 182.255167 
L 169.525044 194.133456 
L 164.090536 207.104311 
L 163.328568 220.630016 
L 167.37445 234.117808 
L 176.041181 246.951884 
L 188.809252 258.533149 
L 204.845704 268.323561 
L 223.056009 275.889959 
L 242.166791 280.941197 
L 260.83123 283.352632 
L 277.743928 283.173855 
L 291.749813 280.61845 
L 301.933115 276.03786 
L 307.676978 269.883984 
L 308.690388 262.666433 
L 305.004884 254.910184 
L 296.947538 247.11803 
L 285.098382 239.740374 
L 270.239927 233.153116 
L 253.304564 227.643026 
L 235.323128 223.399311 
L 217.375557 220.509931 
L 200.542845 218.961548 
L 185.858537 218.642584 
L 174.258088 219.349522 
L 166.525385 220.797182 
L 163.237638 222.634031 
L 164.712346 224.463501 
L 170.962689 225.871663 
L 181.669672 226.460486 
L 196.179801 225.884302 
L 213.535059 223.885614 
L 232.537484 220.325319 
L 251.844235 215.202439 
L 270.082517 208.659747 
L 285.969034 200.974048 
L 298.417572 192.532648 
L 306.621051 183.799961 
L 310.100196 175.279473 
L 308.717693 167.476225 
" style="fill:none;stroke:#000000;stroke-linecap:square;stroke-width:0.8;"/>
   </g>
   <g id="line2d_26">
    <path clip-path="url(#p67f97fa1d1)" d="M 320.778148 162.915199 
L 313.627499 155.21301 
L 301.617722 149.328661 
L 285.593514 145.648455 
L 266.59963 144.455749 
L 245.81602 145.924034 
L 224.497813 150.113154 
L 203.91953 156.966972 
L 185.321058 166.311726 
L 169.852376 177.855485 
L 158.514773 191.190165 
L 152.098266 205.79848 
L 151.117934 221.068597 
L 155.755397 236.31902 
L 165.814863 250.834991 
L 180.704888 263.915524 
L 199.456018 274.927371 
L 220.780075 283.359463 
L 243.169489 288.869635 
L 265.026474 291.315635 
L 284.804734 290.764783 
L 301.143226 287.480677 
L 312.97361 281.889812 
L 319.589403 274.534476 
L 320.673372 266.019875 
L 316.287528 256.962934 
L 306.835134 247.948231 
L 293.00591 239.493857 
L 275.714409 232.027623 
L 256.038628 225.872335 
L 235.162445 221.238066 
L 214.322318 218.219363 
L 194.756428 216.795821 
L 177.653253 216.835357 
L 164.096642 218.100425 
L 155.00565 220.258257 
L 151.069875 222.896773 
L 152.68435 225.547771 
L 159.891791 227.718353 
L 172.343089 228.930028 
L 189.288091 228.762883 
L 209.606601 226.899956 
L 231.883817 223.165383 
L 254.525724 217.549676 
L 275.900829 210.217145 
L 294.48798 201.493697 
L 309.008382 191.837099 
L 318.523963 181.795081 
L 322.492362 171.958336 
L 320.778148 162.915199 
" style="fill:none;stroke:#000000;stroke-linecap:square;stroke-width:0.8;"/>
   </g>
   <g id="line2d_27">
    <path clip-path="url(#p67f97fa1d1)" d="M 332.832096 158.61315 
L 324.5622 149.82999 
L 310.78008 143.074047 
L 292.462388 138.776104 
L 270.800986 137.250747 
L 247.130171 138.690947 
L 222.86194 143.165509 
L 199.427633 150.617178 
L 178.22206 160.860441 
L 160.545547 173.579471 
L 147.540303 188.328068 
L 140.119906 204.534625 
L 138.894496 221.515824 
L 144.098885 238.502625 
L 155.535254 254.680719 
L 172.544915 269.244952 
L 194.022965 281.463544 
L 218.484411 290.744148 
L 244.180879 296.691272 
L 269.255514 299.144617 
L 291.913998 298.190881 
L 310.585318 294.146949 
L 324.04874 287.51833 
L 331.51222 278.94128 
L 332.638896 269.118935 
L 327.528424 258.760847 
L 316.66619 248.532453 
L 300.854985 239.017435 
L 281.141666 230.692858 
L 258.74712 223.914977 
L 235.003288 218.912752 
L 211.296982 215.786265 
L 189.01748 214.50806 
L 169.503461 214.926517 
L 153.984874 216.771671 
L 143.516798 219.664946 
L 138.905313 223.135083 
L 140.629655 226.642674 
L 148.769862 229.614954 
L 162.953598 231.490753 
L 182.337969 231.772743 
L 205.640137 230.081147 
L 231.223451 226.200727 
L 257.234489 220.11236 
L 281.774047 212.002556 
L 303.076038 202.248484 
L 319.665984 191.381253 
L 330.476355 180.034567 
L 334.907094 168.887942 
L 332.832096 158.61315 
" style="fill:none;stroke:#000000;stroke-linecap:square;stroke-width:0.8;"/>
   </g>
   <g id="line2d_28">
    <path clip-path="url(#p67f97fa1d1)" d="M 344.878712 154.523398 
L 335.4659 144.66808 
L 319.898544 137.04832 
L 299.287546 132.136641 
L 274.97095 130.276359 
L 248.433734 131.67817 
L 221.23932 136.419188 
L 194.969857 144.441663 
L 171.169759 155.550179 
L 151.286235 169.407856 
L 136.601671 185.533765 
L 128.155562 203.305298 
L 126.658262 221.970213 
L 132.404655 240.673076 
L 145.201778 258.499396 
L 164.328565 274.537507 
L 188.545847 287.95365 
L 216.16867 298.07068 
L 245.201123 304.437342 
L 273.518981 306.874783 
L 299.072631 305.490725 
L 320.077052 300.658649 
L 335.159384 292.96707 
L 343.44624 283.149759 
L 344.587807 272.010034 
L 338.728561 260.350648 
L 326.441839 248.916888 
L 308.646753 238.355893 
L 286.522633 229.191356 
L 261.430549 221.810481 
L 234.845629 216.459223 
L 208.299033 213.242253 
L 183.3252 212.125148 
L 161.408346 212.937785 
L 143.922186 215.379458 
L 132.058531 219.027651 
L 126.74387 223.353426 
L 128.548197 227.746735 
L 137.59667 231.554211 
L 153.500744 234.129879 
L 175.328883 234.895873 
L 201.635254 233.406247 
L 230.556311 229.403755 
L 259.970812 222.85853 
L 287.702621 213.980021 
L 311.733529 203.198938 
L 330.390323 191.122751 
L 342.477733 178.473881 
L 347.343602 166.022313 
L 344.878712 154.523398 
" style="fill:none;stroke:#000000;stroke-linecap:square;stroke-width:0.8;"/>
   </g>
   <g id="line2d_29">
    <path clip-path="url(#p67f97fa1d1)" d="M 236.321354 218.771307 
L 238.531043 210.578863 
L 240.743106 207.085464 
L 242.956441 204.365579 
L 245.170677 202.046261 
L 247.3856 199.983033 
L 249.601066 198.101791 
L 251.816971 196.358509 
L 254.033233 194.724497 
L 256.249786 193.179826 
L 258.466576 191.709982 
L 260.683558 190.30401 
L 262.900692 188.953396 
L 265.117943 187.651368 
L 267.335283 186.392435 
L 269.552682 185.172074 
L 271.770119 183.9865 
L 273.987569 182.832515 
L 276.205014 181.707381 
L 278.422436 180.608739 
L 280.639817 179.534535 
L 282.857142 178.482967 
L 285.074396 177.452448 
L 287.291567 176.441568 
L 289.508642 175.449069 
L 291.725608 174.47382 
L 293.942456 173.514807 
L 296.159174 172.571107 
L 298.375754 171.641887 
L 300.592185 170.726383 
L 302.808459 169.823898 
L 305.024567 168.933795 
L 307.240503 168.055484 
L 309.456257 167.188423 
L 311.671824 166.332109 
L 313.887196 165.486078 
L 316.102366 164.649898 
L 318.317329 163.823166 
L 320.532078 163.005505 
L 322.746608 162.196566 
L 324.960913 161.39602 
L 327.174987 160.603557 
L 329.388826 159.818889 
L 331.602425 159.041743 
L 333.815778 158.271862 
L 336.028882 157.509004 
L 338.241731 156.752939 
L 340.454322 156.003452 
L 342.66665 155.260336 
L 344.878712 154.523398 
" style="fill:none;stroke:#ff0000;stroke-linecap:square;stroke-width:2;"/>
   </g>
   <g id="line2d_30">
    <path clip-path="url(#p67f97fa1d1)" d="M 236.321354 218.771307 
L 238.524376 226.617892 
L 240.723757 229.76554 
L 242.920599 232.13978 
L 245.115275 234.11356 
L 247.307999 235.831355 
L 249.498913 237.367272 
L 251.688125 238.765335 
L 253.875717 240.054235 
L 256.061753 241.253901 
L 258.24629 242.378844 
L 260.429372 243.440024 
L 262.611041 244.445951 
L 264.791331 245.403399 
L 266.970273 246.317856 
L 269.147894 247.19385 
L 271.324219 248.035161 
L 273.49927 248.844991 
L 275.673069 249.626074 
L 277.845633 250.380772 
L 280.01698 251.111138 
L 282.187126 251.818973 
L 284.356086 252.505865 
L 286.523874 253.173224 
L 288.690503 253.822309 
L 290.855985 254.454247 
L 293.020332 255.070057 
L 295.183554 255.670658 
L 297.345662 256.256886 
L 299.506665 256.829502 
L 301.666574 257.389205 
L 303.825396 257.936632 
L 305.98314 258.472371 
L 308.139815 258.996967 
L 310.295427 259.510919 
L 312.449985 260.014694 
L 314.603495 260.508724 
L 316.755964 260.993411 
L 318.907399 261.469131 
L 321.057806 261.936235 
L 323.207191 262.395051 
L 325.35556 262.845888 
L 327.502918 263.289035 
L 329.649271 263.724766 
L 331.794625 264.153335 
L 333.938984 264.574987 
L 336.082354 264.98995 
L 338.224739 265.398441 
L 340.366144 265.800664 
L 342.506574 266.196814 
" style="fill:none;stroke:#ff0000;stroke-linecap:square;stroke-width:2;"/>
   </g>
   <g id="Poly3DCollection_1">
    <path clip-path="url(#p67f97fa1d1)" d="M 255.357531 226.334364 
L 235.202471 221.795444 
L 234.845629 216.459223 
L 261.430549 221.810481 
z
" style="fill:#ff4d27;fill-opacity:0.65;"/>
    <path clip-path="url(#p67f97fa1d1)" d="M 235.202471 221.795444 
L 215.082991 218.806853 
L 208.299033 213.242253 
L 234.845629 216.459223 
z
" style="fill:#ff6d38;fill-opacity:0.65;"/>
    <path clip-path="url(#p67f97fa1d1)" d="M 274.350255 232.330613 
L 255.357531 226.334364 
L 261.430549 221.810481 
L 286.522633 229.191356 
z
" style="fill:#ff3219;fill-opacity:0.65;"/>
    <path clip-path="url(#p67f97fa1d1)" d="M 215.082991 218.806853 
L 196.198549 217.349956 
L 183.3252 212.125148 
L 208.299033 213.242253 
z
" style="fill:#ff8e4a;fill-opacity:0.65;"/>
    <path clip-path="url(#p67f97fa1d1)" d="M 291.034556 239.579142 
L 274.350255 232.330613 
L 286.522633 229.191356 
L 308.646753 238.355893 
z
" style="fill:#ff1c0e;fill-opacity:0.65;"/>
    <path clip-path="url(#p67f97fa1d1)" d="M 196.198549 217.349956 
L 179.699338 217.297711 
L 161.408346 212.937785 
L 183.3252 212.125148 
z
" style="fill:#ffae5e;fill-opacity:0.65;"/>
    <path clip-path="url(#p67f97fa1d1)" d="M 304.368583 247.765909 
L 291.034556 239.579142 
L 308.646753 238.355893 
L 326.441839 248.916888 
z
" style="fill:#ff0d06;fill-opacity:0.65;"/>
    <path clip-path="url(#p67f97fa1d1)" d="M 249.154273 229.816914 
L 235.567086 226.213594 
L 235.202471 221.795444 
L 255.357531 226.334364 
z
" style="fill:#ff7b40;fill-opacity:0.65;"/>
    <path clip-path="url(#p67f97fa1d1)" d="M 235.567086 226.213594 
L 222.008982 223.572744 
L 215.082991 218.806853 
L 235.202471 221.795444 
z
" style="fill:#ff934d;fill-opacity:0.65;"/>
    <path clip-path="url(#p67f97fa1d1)" d="M 261.937333 234.30687 
L 249.154273 229.816914 
L 255.357531 226.334364 
L 274.350255 232.330613 
z
" style="fill:#ff6835;fill-opacity:0.65;"/>
    <path clip-path="url(#p67f97fa1d1)" d="M 222.008982 223.572744 
L 209.313415 221.891385 
L 196.198549 217.349956 
L 215.082991 218.806853 
z
" style="fill:#ffac5c;fill-opacity:0.65;"/>
    <path clip-path="url(#p67f97fa1d1)" d="M 273.124594 239.529554 
L 261.937333 234.30687 
L 274.350255 232.330613 
L 291.034556 239.579142 
z
" style="fill:#ff562c;fill-opacity:0.65;"/>
    <path clip-path="url(#p67f97fa1d1)" d="M 245.485821 147.770985 
L 224.908862 151.885343 
L 221.23932 136.419188 
L 248.433734 131.67817 
z
" style="fill:#435cfb;fill-opacity:0.65;"/>
    <path clip-path="url(#p67f97fa1d1)" d="M 224.908862 151.885343 
L 205.04786 158.584957 
L 194.969857 144.441663 
L 221.23932 136.419188 
z
" style="fill:#2e7bf7;fill-opacity:0.65;"/>
    <path clip-path="url(#p67f97fa1d1)" d="M 179.699338 217.297711 
L 166.632321 218.420928 
L 143.922186 215.379458 
L 161.408346 212.937785 
z
" style="fill:#e6cd73;fill-opacity:0.65;"/>
    <path clip-path="url(#p67f97fa1d1)" d="M 265.544373 146.297636 
L 245.485821 147.770985 
L 248.433734 131.67817 
L 274.97095 130.276359 
z
" style="fill:#573efd;fill-opacity:0.65;"/>
    <path clip-path="url(#p67f97fa1d1)" d="M 313.470823 256.475831 
L 304.368583 247.765909 
L 326.441839 248.916888 
L 338.728561 260.350648 
z
" style="fill:#ff0302;fill-opacity:0.65;"/>
    <path clip-path="url(#p67f97fa1d1)" d="M 205.04786 158.584957 
L 187.103129 167.69931 
L 171.169759 155.550179 
L 194.969857 144.441663 
z
" style="fill:#139df1;fill-opacity:0.65;"/>
    <path clip-path="url(#p67f97fa1d1)" d="M 209.313415 221.891385 
L 198.272492 221.090266 
L 179.699338 217.297711 
L 196.198549 217.349956 
z
" style="fill:#eec66d;fill-opacity:0.65;"/>
    <path clip-path="url(#p67f97fa1d1)" d="M 282.007183 245.257302 
L 273.124594 239.529554 
L 291.034556 239.579142 
L 304.368583 247.765909 
z
" style="fill:#ff4724;fill-opacity:0.65;"/>
    <path clip-path="url(#p67f97fa1d1)" d="M 283.869465 147.407788 
L 265.544373 146.297636 
L 274.97095 130.276359 
L 299.287546 132.136641 
z
" style="fill:#6726fe;fill-opacity:0.65;"/>
    <path clip-path="url(#p67f97fa1d1)" d="M 242.813449 231.150158 
L 235.939873 228.707496 
L 235.567086 226.213594 
L 249.154273 229.816914 
z
" style="fill:#ffae5e;fill-opacity:0.65;"/>
    <path clip-path="url(#p67f97fa1d1)" d="M 187.103129 167.69931 
L 172.186522 178.942908 
L 151.286235 169.407856 
L 171.169759 155.550179 
z
" style="fill:#09bee9;fill-opacity:0.65;"/>
    <path clip-path="url(#p67f97fa1d1)" d="M 249.270057 233.929278 
L 242.813449 231.150158 
L 249.154273 229.816914 
L 261.937333 234.30687 
z
" style="fill:#ffa055;fill-opacity:0.65;"/>
    <path clip-path="url(#p67f97fa1d1)" d="M 235.939873 228.707496 
L 229.084245 226.652269 
L 222.008982 223.572744 
L 235.567086 226.213594 
z
" style="fill:#f7be68;fill-opacity:0.65;"/>
    <path clip-path="url(#p67f97fa1d1)" d="M 287.999962 251.197148 
L 282.007183 245.257302 
L 304.368583 247.765909 
L 313.470823 256.475831 
z
" style="fill:#ff3e1f;fill-opacity:0.65;"/>
    <path clip-path="url(#p67f97fa1d1)" d="M 198.272492 221.090266 
L 189.594887 221.019675 
L 166.632321 218.420928 
L 179.699338 217.297711 
z
" style="fill:#d7db7e;fill-opacity:0.65;"/>
    <path clip-path="url(#p67f97fa1d1)" d="M 242.484002 165.269457 
L 228.645968 168.631243 
L 224.908862 151.885343 
L 245.485821 147.770985 
z
" style="fill:#2586f5;fill-opacity:0.65;"/>
    <path clip-path="url(#p67f97fa1d1)" d="M 228.645968 168.631243 
L 215.299734 173.836048 
L 205.04786 158.584957 
L 224.908862 151.885343 
z
" style="fill:#11a0f1;fill-opacity:0.65;"/>
    <path clip-path="url(#p67f97fa1d1)" d="M 254.899263 236.954308 
L 249.270057 233.929278 
L 261.937333 234.30687 
L 273.124594 239.529554 
z
" style="fill:#ff964f;fill-opacity:0.65;"/>
    <path clip-path="url(#p67f97fa1d1)" d="M 229.084245 226.652269 
L 222.681062 224.994817 
L 209.313415 221.891385 
L 222.008982 223.572744 
z
" style="fill:#e6cd73;fill-opacity:0.65;"/>
    <path clip-path="url(#p67f97fa1d1)" d="M 255.95841 163.800636 
L 242.484002 165.269457 
L 245.485821 147.770985 
L 265.544373 146.297636 
z
" style="fill:#3570f8;fill-opacity:0.65;"/>
    <path clip-path="url(#p67f97fa1d1)" d="M 215.299734 173.836048 
L 203.274067 180.748682 
L 187.103129 167.69931 
L 205.04786 158.584957 
z
" style="fill:#04b9ea;fill-opacity:0.65;"/>
    <path clip-path="url(#p67f97fa1d1)" d="M 166.632321 218.420928 
L 157.882676 220.398576 
L 132.058531 219.027651 
L 143.922186 215.379458 
z
" style="fill:#c8e688;fill-opacity:0.65;"/>
    <path clip-path="url(#p67f97fa1d1)" d="M 317.6793 265.207543 
L 313.470823 256.475831 
L 338.728561 260.350648 
L 344.587807 272.010034 
z
" style="fill:#ff0000;fill-opacity:0.65;"/>
    <path clip-path="url(#p67f97fa1d1)" d="M 259.339146 240.098619 
L 254.899263 236.954308 
L 273.124594 239.529554 
L 282.007183 245.257302 
z
" style="fill:#ff8c49;fill-opacity:0.65;"/>
    <path clip-path="url(#p67f97fa1d1)" d="M 299.320306 150.933098 
L 283.869465 147.407788 
L 299.287546 132.136641 
L 319.898544 137.04832 
z
" style="fill:#7313ff;fill-opacity:0.65;"/>
    <path clip-path="url(#p67f97fa1d1)" d="M 222.681062 224.994817 
L 217.139412 223.706166 
L 198.272492 221.090266 
L 209.313415 221.891385 
z
" style="fill:#d5dd7f;fill-opacity:0.65;"/>
    <path clip-path="url(#p67f97fa1d1)" d="M 268.230514 164.189923 
L 255.95841 163.800636 
L 265.544373 146.297636 
L 283.869465 147.407788 
z
" style="fill:#435cfb;fill-opacity:0.65;"/>
    <path clip-path="url(#p67f97fa1d1)" d="M 172.186522 178.942908 
L 161.263987 191.917748 
L 136.601671 185.533765 
L 151.286235 169.407856 
z
" style="fill:#26dade;fill-opacity:0.65;"/>
    <path clip-path="url(#p67f97fa1d1)" d="M 203.274067 180.748682 
L 193.327866 189.150682 
L 172.186522 178.942908 
L 187.103129 167.69931 
z
" style="fill:#1bcfe3;fill-opacity:0.65;"/>
    <path clip-path="url(#p67f97fa1d1)" d="M 290.680798 257.004078 
L 287.999962 251.197148 
L 313.470823 256.475831 
L 317.6793 265.207543 
z
" style="fill:#ff3e1f;fill-opacity:0.65;"/>
    <path clip-path="url(#p67f97fa1d1)" d="M 262.298536 243.205462 
L 259.339146 240.098619 
L 282.007183 245.257302 
L 287.999962 251.197148 
z
" style="fill:#ff8646;fill-opacity:0.65;"/>
    <path clip-path="url(#p67f97fa1d1)" d="M 189.594887 221.019675 
L 183.863659 221.468826 
L 157.882676 220.398576 
L 166.632321 218.420928 
z
" style="fill:#bced8f;fill-opacity:0.65;"/>
    <path clip-path="url(#p67f97fa1d1)" d="M 217.139412 223.706166 
L 212.81873 222.721644 
L 189.594887 221.019675 
L 198.272492 221.090266 
z
" style="fill:#c2ea8c;fill-opacity:0.65;"/>
    <path clip-path="url(#p67f97fa1d1)" d="M 278.522154 166.320318 
L 268.230514 164.189923 
L 283.869465 147.407788 
L 299.320306 150.933098 
z
" style="fill:#4e4dfc;fill-opacity:0.65;"/>
    <path clip-path="url(#p67f97fa1d1)" d="M 232.450948 187.618591 
L 225.726255 191.028141 
L 215.299734 173.836048 
L 228.645968 168.631243 
z
" style="fill:#10c6e6;fill-opacity:0.65;"/>
    <path clip-path="url(#p67f97fa1d1)" d="M 239.428235 185.245916 
L 232.450948 187.618591 
L 228.645968 168.631243 
L 242.484002 165.269457 
z
" style="fill:#00b5eb;fill-opacity:0.65;"/>
    <path clip-path="url(#p67f97fa1d1)" d="M 193.327866 189.150682 
L 186.107354 198.745328 
L 161.263987 191.917748 
L 172.186522 178.942908 
z
" style="fill:#34e4d9;fill-opacity:0.65;"/>
    <path clip-path="url(#p67f97fa1d1)" d="M 225.726255 191.028141 
L 219.682999 195.388327 
L 203.274067 180.748682 
L 215.299734 173.836048 
z
" style="fill:#20d5e1;fill-opacity:0.65;"/>
    <path clip-path="url(#p67f97fa1d1)" d="M 263.576354 246.096333 
L 262.298536 243.205462 
L 287.999962 251.197148 
L 290.680798 257.004078 
z
" style="fill:#ff8646;fill-opacity:0.65;"/>
    <path clip-path="url(#p67f97fa1d1)" d="M 246.213954 183.948148 
L 239.428235 185.245916 
L 242.484002 165.269457 
L 255.95841 163.800636 
z
" style="fill:#0ca7ef;fill-opacity:0.65;"/>
    <path clip-path="url(#p67f97fa1d1)" d="M 310.889049 156.598415 
L 299.320306 150.933098 
L 319.898544 137.04832 
L 335.4659 144.66808 
z
" style="fill:#7c06ff;fill-opacity:0.65;"/>
    <path clip-path="url(#p67f97fa1d1)" d="M 212.81873 222.721644 
L 210.006254 221.946714 
L 183.863659 221.468826 
L 189.594887 221.019675 
z
" style="fill:#aef498;fill-opacity:0.65;"/>
    <path clip-path="url(#p67f97fa1d1)" d="M 219.682999 195.388327 
L 214.70946 200.567049 
L 193.327866 189.150682 
L 203.274067 180.748682 
z
" style="fill:#32e3da;fill-opacity:0.65;"/>
    <path clip-path="url(#p67f97fa1d1)" d="M 252.374493 183.714882 
L 246.213954 183.948148 
L 255.95841 163.800636 
L 268.230514 164.189923 
z
" style="fill:#159bf2;fill-opacity:0.65;"/>
    <path clip-path="url(#p67f97fa1d1)" d="M 161.263987 191.917748 
L 155.095034 206.120653 
L 128.155562 203.305298 
L 136.601671 185.533765 
z
" style="fill:#46efd1;fill-opacity:0.65;"/>
    <path clip-path="url(#p67f97fa1d1)" d="M 316.610358 273.396831 
L 317.6793 265.207543 
L 344.587807 272.010034 
L 343.44624 283.149759 
z
" style="fill:#ff0302;fill-opacity:0.65;"/>
    <path clip-path="url(#p67f97fa1d1)" d="M 236.321354 218.771307 
L 236.321354 218.771307 
L 235.939873 228.707496 
L 242.813449 231.150158 
z
" style="fill:#b7f193;fill-opacity:0.65;"/>
    <path clip-path="url(#p67f97fa1d1)" d="M 236.321354 218.771307 
L 236.321354 218.771307 
L 242.813449 231.150158 
L 249.270057 233.929278 
z
" style="fill:#bbee91;fill-opacity:0.65;"/>
    <path clip-path="url(#p67f97fa1d1)" d="M 236.321354 218.771307 
L 236.321354 218.771307 
L 229.084245 226.652269 
L 235.939873 228.707496 
z
" style="fill:#b0f397;fill-opacity:0.65;"/>
    <path clip-path="url(#p67f97fa1d1)" d="M 157.882676 220.398576 
L 154.111512 222.833588 
L 126.74387 223.353426 
L 132.058531 219.027651 
z
" style="fill:#a8f79c;fill-opacity:0.65;"/>
    <path clip-path="url(#p67f97fa1d1)" d="M 236.321354 218.771307 
L 236.321354 218.771307 
L 249.270057 233.929278 
L 254.899263 236.954308 
z
" style="fill:#beec8e;fill-opacity:0.65;"/>
    <path clip-path="url(#p67f97fa1d1)" d="M 289.825564 262.299494 
L 290.680798 257.004078 
L 317.6793 265.207543 
L 316.610358 273.396831 
z
" style="fill:#ff3e1f;fill-opacity:0.65;"/>
    <path clip-path="url(#p67f97fa1d1)" d="M 236.321354 218.771307 
L 236.321354 218.771307 
L 222.681062 224.994817 
L 229.084245 226.652269 
z
" style="fill:#abf69b;fill-opacity:0.65;"/>
    <path clip-path="url(#p67f97fa1d1)" d="M 236.321354 218.771307 
L 236.321354 218.771307 
L 254.899263 236.954308 
L 259.339146 240.098619 
z
" style="fill:#c2ea8c;fill-opacity:0.65;"/>
    <path clip-path="url(#p67f97fa1d1)" d="M 236.321354 218.771307 
L 236.321354 218.771307 
L 217.139412 223.706166 
L 222.681062 224.994817 
z
" style="fill:#a2f9a0;fill-opacity:0.65;"/>
    <path clip-path="url(#p67f97fa1d1)" d="M 214.70946 200.567049 
L 211.129666 206.390917 
L 186.107354 198.745328 
L 193.327866 189.150682 
z
" style="fill:#46efd1;fill-opacity:0.65;"/>
    <path clip-path="url(#p67f97fa1d1)" d="M 263.076711 248.581535 
L 263.576354 246.096333 
L 290.680798 257.004078 
L 289.825564 262.299494 
z
" style="fill:#ff8646;fill-opacity:0.65;"/>
    <path clip-path="url(#p67f97fa1d1)" d="M 183.863659 221.468826 
L 181.495508 222.179183 
L 154.111512 222.833588 
L 157.882676 220.398576 
z
" style="fill:#a2f9a0;fill-opacity:0.65;"/>
    <path clip-path="url(#p67f97fa1d1)" d="M 186.107354 198.745328 
L 182.104708 209.166649 
L 155.095034 206.120653 
L 161.263987 191.917748 
z
" style="fill:#4ef3cd;fill-opacity:0.65;"/>
    <path clip-path="url(#p67f97fa1d1)" d="M 286.159674 169.997775 
L 278.522154 166.320318 
L 299.320306 150.933098 
L 310.889049 156.598415 
z
" style="fill:#5541fd;fill-opacity:0.65;"/>
    <path clip-path="url(#p67f97fa1d1)" d="M 236.321354 218.771307 
L 236.321354 218.771307 
L 259.339146 240.098619 
L 262.298536 243.205462 
z
" style="fill:#c2ea8c;fill-opacity:0.65;"/>
    <path clip-path="url(#p67f97fa1d1)" d="M 257.512384 184.489077 
L 252.374493 183.714882 
L 268.230514 164.189923 
L 278.522154 166.320318 
z
" style="fill:#1e91f3;fill-opacity:0.65;"/>
    <path clip-path="url(#p67f97fa1d1)" d="M 236.321354 218.771307 
L 236.321354 218.771307 
L 212.81873 222.721644 
L 217.139412 223.706166 
z
" style="fill:#9bfba5;fill-opacity:0.65;"/>
    <path clip-path="url(#p67f97fa1d1)" d="M 236.321354 218.771307 
L 236.321354 218.771307 
L 262.298536 243.205462 
L 263.576354 246.096333 
z
" style="fill:#c4e88a;fill-opacity:0.65;"/>
    <path clip-path="url(#p67f97fa1d1)" d="M 210.006254 221.946714 
L 208.897379 221.264862 
L 181.495508 222.179183 
L 183.863659 221.468826 
z
" style="fill:#9bfba5;fill-opacity:0.65;"/>
    <path clip-path="url(#p67f97fa1d1)" d="M 236.321354 218.771307 
L 236.321354 218.771307 
L 225.726255 191.028141 
L 232.450948 187.618591 
z
" style="fill:#50f4cc;fill-opacity:0.65;"/>
    <path clip-path="url(#p67f97fa1d1)" d="M 236.321354 218.771307 
L 236.321354 218.771307 
L 232.450948 187.618591 
L 239.428235 185.245916 
z
" style="fill:#4bf2cf;fill-opacity:0.65;"/>
    <path clip-path="url(#p67f97fa1d1)" d="M 236.321354 218.771307 
L 236.321354 218.771307 
L 219.682999 195.388327 
L 225.726255 191.028141 
z
" style="fill:#59f8c9;fill-opacity:0.65;"/>
    <path clip-path="url(#p67f97fa1d1)" d="M 236.321354 218.771307 
L 236.321354 218.771307 
L 210.006254 221.946714 
L 212.81873 222.721644 
z
" style="fill:#92fda9;fill-opacity:0.65;"/>
    <path clip-path="url(#p67f97fa1d1)" d="M 211.129666 206.390917 
L 209.182376 212.652132 
L 182.104708 209.166649 
L 186.107354 198.745328 
z
" style="fill:#5bf8c8;fill-opacity:0.65;"/>
    <path clip-path="url(#p67f97fa1d1)" d="M 236.321354 218.771307 
L 236.321354 218.771307 
L 239.428235 185.245916 
L 246.213954 183.948148 
z
" style="fill:#46efd1;fill-opacity:0.65;"/>
    <path clip-path="url(#p67f97fa1d1)" d="M 236.321354 218.771307 
L 236.321354 218.771307 
L 263.576354 246.096333 
L 263.076711 248.581535 
z
" style="fill:#c2ea8c;fill-opacity:0.65;"/>
    <path clip-path="url(#p67f97fa1d1)" d="M 236.321354 218.771307 
L 236.321354 218.771307 
L 214.70946 200.567049 
L 219.682999 195.388327 
z
" style="fill:#5efac6;fill-opacity:0.65;"/>
    <path clip-path="url(#p67f97fa1d1)" d="M 236.321354 218.771307 
L 236.321354 218.771307 
L 246.213954 183.948148 
L 252.374493 183.714882 
z
" style="fill:#40ecd4;fill-opacity:0.65;"/>
    <path clip-path="url(#p67f97fa1d1)" d="M 236.321354 218.771307 
L 236.321354 218.771307 
L 211.129666 206.390917 
L 214.70946 200.567049 
z
" style="fill:#69fcc1;fill-opacity:0.65;"/>
    <path clip-path="url(#p67f97fa1d1)" d="M 261.290685 186.170897 
L 257.512384 184.489077 
L 278.522154 166.320318 
L 286.159674 169.997775 
z
" style="fill:#2389f5;fill-opacity:0.65;"/>
    <path clip-path="url(#p67f97fa1d1)" d="M 260.818311 250.472496 
L 263.076711 248.581535 
L 289.825564 262.299494 
L 285.434964 266.694807 
z
" style="fill:#ff8c49;fill-opacity:0.65;"/>
    <path clip-path="url(#p67f97fa1d1)" d="M 236.321354 218.771307 
L 236.321354 218.771307 
L 208.897379 221.264862 
L 210.006254 221.946714 
z
" style="fill:#8bfeae;fill-opacity:0.65;"/>
    <path clip-path="url(#p67f97fa1d1)" d="M 236.321354 218.771307 
L 236.321354 218.771307 
L 252.374493 183.714882 
L 257.512384 184.489077 
z
" style="fill:#3febd5;fill-opacity:0.65;"/>
    <path clip-path="url(#p67f97fa1d1)" d="M 236.321354 218.771307 
L 236.321354 218.771307 
L 263.076711 248.581535 
L 260.818311 250.472496 
z
" style="fill:#c2ea8c;fill-opacity:0.65;"/>
    <path clip-path="url(#p67f97fa1d1)" d="M 236.321354 218.771307 
L 236.321354 218.771307 
L 209.182376 212.652132 
L 211.129666 206.390917 
z
" style="fill:#70febc;fill-opacity:0.65;"/>
    <path clip-path="url(#p67f97fa1d1)" d="M 317.763608 164.028984 
L 310.889049 156.598415 
L 335.4659 144.66808 
L 344.878712 154.523398 
z
" style="fill:#8000ff;fill-opacity:0.65;"/>
    <path clip-path="url(#p67f97fa1d1)" d="M 236.321354 218.771307 
L 236.321354 218.771307 
L 257.512384 184.489077 
L 261.290685 186.170897 
z
" style="fill:#3dead5;fill-opacity:0.65;"/>
    <path clip-path="url(#p67f97fa1d1)" d="M 285.434964 266.694807 
L 289.825564 262.299494 
L 316.610358 273.396831 
L 310.210277 280.449823 
z
" style="fill:#ff4724;fill-opacity:0.65;"/>
    <path clip-path="url(#p67f97fa1d1)" d="M 236.321354 218.771307 
L 236.321354 218.771307 
L 209.004059 219.117701 
L 209.182376 212.652132 
z
" style="fill:#79ffb8;fill-opacity:0.65;"/>
    <path clip-path="url(#p67f97fa1d1)" d="M 236.321354 218.771307 
L 236.321354 218.771307 
L 260.818311 250.472496 
L 256.936764 251.595129 
z
" style="fill:#beec8e;fill-opacity:0.65;"/>
    <path clip-path="url(#p67f97fa1d1)" d="M 209.182376 212.652132 
L 209.004059 219.117701 
L 181.620483 219.993322 
L 182.104708 209.166649 
z
" style="fill:#6efebe;fill-opacity:0.65;"/>
    <path clip-path="url(#p67f97fa1d1)" d="M 155.095034 206.120653 
L 154.171793 220.958071 
L 126.658262 221.970213 
L 128.155562 203.305298 
z
" style="fill:#66fcc2;fill-opacity:0.65;"/>
    <path clip-path="url(#p67f97fa1d1)" d="M 182.104708 209.166649 
L 181.620483 219.993322 
L 154.171793 220.958071 
L 155.095034 206.120653 
z
" style="fill:#6bfdc0;fill-opacity:0.65;"/>
    <path clip-path="url(#p67f97fa1d1)" d="M 236.321354 218.771307 
L 236.321354 218.771307 
L 209.580354 220.54727 
L 208.897379 221.264862 
z
" style="fill:#80ffb4;fill-opacity:0.65;"/>
    <path clip-path="url(#p67f97fa1d1)" d="M 290.617139 174.959354 
L 286.159674 169.997775 
L 310.889049 156.598415 
L 317.763608 164.028984 
z
" style="fill:#573efd;fill-opacity:0.65;"/>
    <path clip-path="url(#p67f97fa1d1)" d="M 236.321354 218.771307 
L 236.321354 218.771307 
L 210.617328 225.540792 
L 209.004059 219.117701 
z
" style="fill:#80ffb4;fill-opacity:0.65;"/>
    <path clip-path="url(#p67f97fa1d1)" d="M 236.321354 218.771307 
L 236.321354 218.771307 
L 261.290685 186.170897 
L 263.454995 188.623567 
z
" style="fill:#3be8d6;fill-opacity:0.65;"/>
    <path clip-path="url(#p67f97fa1d1)" d="M 236.321354 218.771307 
L 236.321354 218.771307 
L 256.936764 251.595129 
L 251.678753 251.803255 
z
" style="fill:#bbee91;fill-opacity:0.65;"/>
    <path clip-path="url(#p67f97fa1d1)" d="M 208.897379 221.264862 
L 209.580354 220.54727 
L 182.704398 222.861964 
L 181.495508 222.179183 
z
" style="fill:#84ffb2;fill-opacity:0.65;"/>
    <path clip-path="url(#p67f97fa1d1)" d="M 310.210277 280.449823 
L 316.610358 273.396831 
L 343.44624 283.149759 
L 335.159384 292.96707 
z
" style="fill:#ff0d06;fill-opacity:0.65;"/>
    <path clip-path="url(#p67f97fa1d1)" d="M 236.321354 218.771307 
L 236.321354 218.771307 
L 213.926265 231.673817 
L 210.617328 225.540792 
z
" style="fill:#8bfeae;fill-opacity:0.65;"/>
    <path clip-path="url(#p67f97fa1d1)" d="M 236.321354 218.771307 
L 236.321354 218.771307 
L 212.026874 219.663823 
L 209.580354 220.54727 
z
" style="fill:#79ffb8;fill-opacity:0.65;"/>
    <path clip-path="url(#p67f97fa1d1)" d="M 263.454995 188.623567 
L 261.290685 186.170897 
L 286.159674 169.997775 
L 290.617139 174.959354 
z
" style="fill:#2586f5;fill-opacity:0.65;"/>
    <path clip-path="url(#p67f97fa1d1)" d="M 236.321354 218.771307 
L 236.321354 218.771307 
L 251.678753 251.803255 
L 245.387642 250.990927 
z
" style="fill:#b7f193;fill-opacity:0.65;"/>
    <path clip-path="url(#p67f97fa1d1)" d="M 256.936764 251.595129 
L 260.818311 250.472496 
L 285.434964 266.694807 
L 277.748545 269.819191 
z
" style="fill:#ff964f;fill-opacity:0.65;"/>
    <path clip-path="url(#p67f97fa1d1)" d="M 236.321354 218.771307 
L 236.321354 218.771307 
L 263.454995 188.623567 
L 263.851749 191.681233 
z
" style="fill:#3be8d6;fill-opacity:0.65;"/>
    <path clip-path="url(#p67f97fa1d1)" d="M 181.495508 222.179183 
L 182.704398 222.861964 
L 155.69385 225.275638 
L 154.111512 222.833588 
z
" style="fill:#86ffb0;fill-opacity:0.65;"/>
    <path clip-path="url(#p67f97fa1d1)" d="M 236.321354 218.771307 
L 236.321354 218.771307 
L 218.719822 237.282476 
L 213.926265 231.673817 
z
" style="fill:#92fda9;fill-opacity:0.65;"/>
    <path clip-path="url(#p67f97fa1d1)" d="M 236.321354 218.771307 
L 236.321354 218.771307 
L 245.387642 250.990927 
L 238.481007 249.102402 
z
" style="fill:#b0f397;fill-opacity:0.65;"/>
    <path clip-path="url(#p67f97fa1d1)" d="M 236.321354 218.771307 
L 236.321354 218.771307 
L 224.683855 242.159762 
L 218.719822 237.282476 
z
" style="fill:#9bfba5;fill-opacity:0.65;"/>
    <path clip-path="url(#p67f97fa1d1)" d="M 236.321354 218.771307 
L 236.321354 218.771307 
L 238.481007 249.102402 
L 231.421558 246.138672 
z
" style="fill:#abf69b;fill-opacity:0.65;"/>
    <path clip-path="url(#p67f97fa1d1)" d="M 209.004059 219.117701 
L 210.617328 225.540792 
L 184.7334 230.768107 
L 181.620483 219.993322 
z
" style="fill:#84ffb2;fill-opacity:0.65;"/>
    <path clip-path="url(#p67f97fa1d1)" d="M 236.321354 218.771307 
L 236.321354 218.771307 
L 231.421558 246.138672 
L 224.683855 242.159762 
z
" style="fill:#a2f9a0;fill-opacity:0.65;"/>
    <path clip-path="url(#p67f97fa1d1)" d="M 236.321354 218.771307 
L 236.321354 218.771307 
L 216.09007 218.494781 
L 212.026874 219.663823 
z
" style="fill:#70febc;fill-opacity:0.65;"/>
    <path clip-path="url(#p67f97fa1d1)" d="M 154.111512 222.833588 
L 155.69385 225.275638 
L 128.548197 227.746735 
L 126.74387 223.353426 
z
" style="fill:#86ffb0;fill-opacity:0.65;"/>
    <path clip-path="url(#p67f97fa1d1)" d="M 236.321354 218.771307 
L 236.321354 218.771307 
L 263.851749 191.681233 
L 262.441231 195.158672 
z
" style="fill:#3dead5;fill-opacity:0.65;"/>
    <path clip-path="url(#p67f97fa1d1)" d="M 236.321354 218.771307 
L 236.321354 218.771307 
L 221.51098 216.942248 
L 216.09007 218.494781 
z
" style="fill:#69fcc1;fill-opacity:0.65;"/>
    <path clip-path="url(#p67f97fa1d1)" d="M 236.321354 218.771307 
L 236.321354 218.771307 
L 262.441231 195.158672 
L 259.303737 198.862505 
z
" style="fill:#3febd5;fill-opacity:0.65;"/>
    <path clip-path="url(#p67f97fa1d1)" d="M 251.678753 251.803255 
L 256.936764 251.595129 
L 277.748545 269.819191 
L 267.241383 271.349511 
z
" style="fill:#ffa055;fill-opacity:0.65;"/>
    <path clip-path="url(#p67f97fa1d1)" d="M 181.620483 219.993322 
L 184.7334 230.768107 
L 158.663662 235.770576 
L 154.171793 220.958071 
z
" style="fill:#86ffb0;fill-opacity:0.65;"/>
    <path clip-path="url(#p67f97fa1d1)" d="M 236.321354 218.771307 
L 236.321354 218.771307 
L 259.303737 198.862505 
L 254.63757 202.603346 
z
" style="fill:#40ecd4;fill-opacity:0.65;"/>
    <path clip-path="url(#p67f97fa1d1)" d="M 236.321354 218.771307 
L 236.321354 218.771307 
L 227.933907 214.94042 
L 221.51098 216.942248 
z
" style="fill:#5efac6;fill-opacity:0.65;"/>
    <path clip-path="url(#p67f97fa1d1)" d="M 263.851749 191.681233 
L 263.454995 188.623567 
L 290.617139 174.959354 
L 291.556497 180.885156 
z
" style="fill:#2586f5;fill-opacity:0.65;"/>
    <path clip-path="url(#p67f97fa1d1)" d="M 209.580354 220.54727 
L 212.026874 219.663823 
L 187.473782 223.219606 
L 182.704398 222.861964 
z
" style="fill:#6efebe;fill-opacity:0.65;"/>
    <path clip-path="url(#p67f97fa1d1)" d="M 210.617328 225.540792 
L 213.926265 231.673817 
L 191.282071 241.022688 
L 184.7334 230.768107 
z
" style="fill:#9bfba5;fill-opacity:0.65;"/>
    <path clip-path="url(#p67f97fa1d1)" d="M 277.748545 269.819191 
L 285.434964 266.694807 
L 310.210277 280.449823 
L 298.790349 285.785435 
z
" style="fill:#ff562c;fill-opacity:0.65;"/>
    <path clip-path="url(#p67f97fa1d1)" d="M 236.321354 218.771307 
L 236.321354 218.771307 
L 254.63757 202.603346 
L 248.74811 206.208044 
z
" style="fill:#46efd1;fill-opacity:0.65;"/>
    <path clip-path="url(#p67f97fa1d1)" d="M 236.321354 218.771307 
L 236.321354 218.771307 
L 234.930092 212.46359 
L 227.933907 214.94042 
z
" style="fill:#59f8c9;fill-opacity:0.65;"/>
    <path clip-path="url(#p67f97fa1d1)" d="M 236.321354 218.771307 
L 236.321354 218.771307 
L 248.74811 206.208044 
L 242.028068 209.531015 
z
" style="fill:#4bf2cf;fill-opacity:0.65;"/>
    <path clip-path="url(#p67f97fa1d1)" d="M 236.321354 218.771307 
L 236.321354 218.771307 
L 242.028068 209.531015 
L 234.930092 212.46359 
z
" style="fill:#50f4cc;fill-opacity:0.65;"/>
    <path clip-path="url(#p67f97fa1d1)" d="M 291.556497 180.885156 
L 290.617139 174.959354 
L 317.763608 164.028984 
L 319.39217 172.762953 
z
" style="fill:#573efd;fill-opacity:0.65;"/>
    <path clip-path="url(#p67f97fa1d1)" d="M 154.171793 220.958071 
L 158.663662 235.770576 
L 132.404655 240.673076 
L 126.658262 221.970213 
z
" style="fill:#86ffb0;fill-opacity:0.65;"/>
    <path clip-path="url(#p67f97fa1d1)" d="M 245.387642 250.990927 
L 251.678753 251.803255 
L 267.241383 271.349511 
L 254.600244 271.039462 
z
" style="fill:#ffae5e;fill-opacity:0.65;"/>
    <path clip-path="url(#p67f97fa1d1)" d="M 213.926265 231.673817 
L 218.719822 237.282476 
L 200.863294 250.306798 
L 191.282071 241.022688 
z
" style="fill:#aef498;fill-opacity:0.65;"/>
    <path clip-path="url(#p67f97fa1d1)" d="M 319.39217 172.762953 
L 317.763608 164.028984 
L 344.878712 154.523398 
L 347.343602 166.022313 
z
" style="fill:#8000ff;fill-opacity:0.65;"/>
    <path clip-path="url(#p67f97fa1d1)" d="M 262.441231 195.158672 
L 263.851749 191.681233 
L 291.556497 180.885156 
L 288.860998 187.414654 
z
" style="fill:#2389f5;fill-opacity:0.65;"/>
    <path clip-path="url(#p67f97fa1d1)" d="M 182.704398 222.861964 
L 187.473782 223.219606 
L 162.664291 227.25166 
L 155.69385 225.275638 
z
" style="fill:#6bfdc0;fill-opacity:0.65;"/>
    <path clip-path="url(#p67f97fa1d1)" d="M 238.481007 249.102402 
L 245.387642 250.990927 
L 254.600244 271.039462 
L 240.678668 268.744349 
z
" style="fill:#f7be68;fill-opacity:0.65;"/>
    <path clip-path="url(#p67f97fa1d1)" d="M 218.719822 237.282476 
L 224.683855 242.159762 
L 212.850518 258.219312 
L 200.863294 250.306798 
z
" style="fill:#c2ea8c;fill-opacity:0.65;"/>
    <path clip-path="url(#p67f97fa1d1)" d="M 298.790349 285.785435 
L 310.210277 280.449823 
L 335.159384 292.96707 
L 320.077052 300.658649 
z
" style="fill:#ff1c0e;fill-opacity:0.65;"/>
    <path clip-path="url(#p67f97fa1d1)" d="M 212.026874 219.663823 
L 216.09007 218.494781 
L 195.542465 222.970257 
L 187.473782 223.219606 
z
" style="fill:#5bf8c8;fill-opacity:0.65;"/>
    <path clip-path="url(#p67f97fa1d1)" d="M 184.7334 230.768107 
L 191.282071 241.022688 
L 168.376416 249.868203 
L 158.663662 235.770576 
z
" style="fill:#a2f9a0;fill-opacity:0.65;"/>
    <path clip-path="url(#p67f97fa1d1)" d="M 231.421558 246.138672 
L 238.481007 249.102402 
L 240.678668 268.744349 
L 226.433713 264.438024 
z
" style="fill:#e6cd73;fill-opacity:0.65;"/>
    <path clip-path="url(#p67f97fa1d1)" d="M 224.683855 242.159762 
L 231.421558 246.138672 
L 226.433713 264.438024 
L 212.850518 258.219312 
z
" style="fill:#d5dd7f;fill-opacity:0.65;"/>
    <path clip-path="url(#p67f97fa1d1)" d="M 267.241383 271.349511 
L 277.748545 269.819191 
L 298.790349 285.785435 
L 283.035026 288.884314 
z
" style="fill:#ff6835;fill-opacity:0.65;"/>
    <path clip-path="url(#p67f97fa1d1)" d="M 259.303737 198.862505 
L 262.441231 195.158672 
L 288.860998 187.414654 
L 282.657102 194.16751 
z
" style="fill:#1e91f3;fill-opacity:0.65;"/>
    <path clip-path="url(#p67f97fa1d1)" d="M 155.69385 225.275638 
L 162.664291 227.25166 
L 137.59667 231.554211 
L 128.548197 227.746735 
z
" style="fill:#66fcc2;fill-opacity:0.65;"/>
    <path clip-path="url(#p67f97fa1d1)" d="M 288.860998 187.414654 
L 291.556497 180.885156 
L 319.39217 172.762953 
L 315.543574 182.271298 
z
" style="fill:#5541fd;fill-opacity:0.65;"/>
    <path clip-path="url(#p67f97fa1d1)" d="M 216.09007 218.494781 
L 221.51098 216.942248 
L 206.408915 221.873486 
L 195.542465 222.970257 
z
" style="fill:#46efd1;fill-opacity:0.65;"/>
    <path clip-path="url(#p67f97fa1d1)" d="M 191.282071 241.022688 
L 200.863294 250.306798 
L 182.736162 262.575647 
L 168.376416 249.868203 
z
" style="fill:#bced8f;fill-opacity:0.65;"/>
    <path clip-path="url(#p67f97fa1d1)" d="M 158.663662 235.770576 
L 168.376416 249.868203 
L 145.201778 258.499396 
L 132.404655 240.673076 
z
" style="fill:#a8f79c;fill-opacity:0.65;"/>
    <path clip-path="url(#p67f97fa1d1)" d="M 254.600244 271.039462 
L 267.241383 271.349511 
L 283.035026 288.884314 
L 263.97452 289.3391 
z
" style="fill:#ff7b40;fill-opacity:0.65;"/>
    <path clip-path="url(#p67f97fa1d1)" d="M 254.63757 202.603346 
L 259.303737 198.862505 
L 282.657102 194.16751 
L 273.319801 200.768151 
z
" style="fill:#159bf2;fill-opacity:0.65;"/>
    <path clip-path="url(#p67f97fa1d1)" d="M 187.473782 223.219606 
L 195.542465 222.970257 
L 174.680616 228.303491 
L 162.664291 227.25166 
z
" style="fill:#4ef3cd;fill-opacity:0.65;"/>
    <path clip-path="url(#p67f97fa1d1)" d="M 221.51098 216.942248 
L 227.933907 214.94042 
L 219.357285 219.754643 
L 206.408915 221.873486 
z
" style="fill:#32e3da;fill-opacity:0.65;"/>
    <path clip-path="url(#p67f97fa1d1)" d="M 315.543574 182.271298 
L 319.39217 172.762953 
L 347.343602 166.022313 
L 342.477733 178.473881 
z
" style="fill:#7c06ff;fill-opacity:0.65;"/>
    <path clip-path="url(#p67f97fa1d1)" d="M 283.035026 288.884314 
L 298.790349 285.785435 
L 320.077052 300.658649 
L 299.072631 305.490725 
z
" style="fill:#ff3219;fill-opacity:0.65;"/>
    <path clip-path="url(#p67f97fa1d1)" d="M 200.863294 250.306798 
L 212.850518 258.219312 
L 200.807478 273.28377 
L 182.736162 262.575647 
z
" style="fill:#d7db7e;fill-opacity:0.65;"/>
    <path clip-path="url(#p67f97fa1d1)" d="M 248.74811 206.208044 
L 254.63757 202.603346 
L 273.319801 200.768151 
L 261.457209 206.872406 
z
" style="fill:#0ca7ef;fill-opacity:0.65;"/>
    <path clip-path="url(#p67f97fa1d1)" d="M 240.678668 268.744349 
L 254.600244 271.039462 
L 263.97452 289.3391 
L 242.918006 286.899002 
z
" style="fill:#ff934d;fill-opacity:0.65;"/>
    <path clip-path="url(#p67f97fa1d1)" d="M 227.933907 214.94042 
L 234.930092 212.46359 
L 233.505569 216.524821 
L 219.357285 219.754643 
z
" style="fill:#20d5e1;fill-opacity:0.65;"/>
    <path clip-path="url(#p67f97fa1d1)" d="M 242.028068 209.531015 
L 248.74811 206.208044 
L 261.457209 206.872406 
L 247.872619 212.193585 
z
" style="fill:#00b5eb;fill-opacity:0.65;"/>
    <path clip-path="url(#p67f97fa1d1)" d="M 282.657102 194.16751 
L 288.860998 187.414654 
L 315.543574 182.271298 
L 306.354413 191.986522 
z
" style="fill:#4e4dfc;fill-opacity:0.65;"/>
    <path clip-path="url(#p67f97fa1d1)" d="M 234.930092 212.46359 
L 242.028068 209.531015 
L 247.872619 212.193585 
L 233.505569 216.524821 
z
" style="fill:#10c6e6;fill-opacity:0.65;"/>
    <path clip-path="url(#p67f97fa1d1)" d="M 212.850518 258.219312 
L 226.433713 264.438024 
L 221.350895 281.501288 
L 200.807478 273.28377 
z
" style="fill:#eec66d;fill-opacity:0.65;"/>
    <path clip-path="url(#p67f97fa1d1)" d="M 226.433713 264.438024 
L 240.678668 268.744349 
L 242.918006 286.899002 
L 221.350895 281.501288 
z
" style="fill:#ffac5c;fill-opacity:0.65;"/>
    <path clip-path="url(#p67f97fa1d1)" d="M 168.376416 249.868203 
L 182.736162 262.575647 
L 164.328565 274.537507 
L 145.201778 258.499396 
z
" style="fill:#c8e688;fill-opacity:0.65;"/>
    <path clip-path="url(#p67f97fa1d1)" d="M 195.542465 222.970257 
L 206.408915 221.873486 
L 191.016474 228.03008 
L 174.680616 228.303491 
z
" style="fill:#34e4d9;fill-opacity:0.65;"/>
    <path clip-path="url(#p67f97fa1d1)" d="M 162.664291 227.25166 
L 174.680616 228.303491 
L 153.500744 234.129879 
L 137.59667 231.554211 
z
" style="fill:#46efd1;fill-opacity:0.65;"/>
    <path clip-path="url(#p67f97fa1d1)" d="M 263.97452 289.3391 
L 283.035026 288.884314 
L 299.072631 305.490725 
L 273.518981 306.874783 
z
" style="fill:#ff4d27;fill-opacity:0.65;"/>
    <path clip-path="url(#p67f97fa1d1)" d="M 273.319801 200.768151 
L 282.657102 194.16751 
L 306.354413 191.986522 
L 292.351775 201.339882 
z
" style="fill:#435cfb;fill-opacity:0.65;"/>
    <path clip-path="url(#p67f97fa1d1)" d="M 306.354413 191.986522 
L 315.543574 182.271298 
L 342.477733 178.473881 
L 330.390323 191.122751 
z
" style="fill:#7313ff;fill-opacity:0.65;"/>
    <path clip-path="url(#p67f97fa1d1)" d="M 182.736162 262.575647 
L 200.807478 273.28377 
L 188.545847 287.95365 
L 164.328565 274.537507 
z
" style="fill:#e6cd73;fill-opacity:0.65;"/>
    <path clip-path="url(#p67f97fa1d1)" d="M 206.408915 221.873486 
L 219.357285 219.754643 
L 210.592263 226.129645 
L 191.016474 228.03008 
z
" style="fill:#1bcfe3;fill-opacity:0.65;"/>
    <path clip-path="url(#p67f97fa1d1)" d="M 242.918006 286.899002 
L 263.97452 289.3391 
L 273.518981 306.874783 
L 245.201123 304.437342 
z
" style="fill:#ff6d38;fill-opacity:0.65;"/>
    <path clip-path="url(#p67f97fa1d1)" d="M 261.457209 206.872406 
L 273.319801 200.768151 
L 292.351775 201.339882 
L 274.44112 209.804723 
z
" style="fill:#3570f8;fill-opacity:0.65;"/>
    <path clip-path="url(#p67f97fa1d1)" d="M 200.807478 273.28377 
L 221.350895 281.501288 
L 216.16867 298.07068 
L 188.545847 287.95365 
z
" style="fill:#ffae5e;fill-opacity:0.65;"/>
    <path clip-path="url(#p67f97fa1d1)" d="M 221.350895 281.501288 
L 242.918006 286.899002 
L 245.201123 304.437342 
L 216.16867 298.07068 
z
" style="fill:#ff8e4a;fill-opacity:0.65;"/>
    <path clip-path="url(#p67f97fa1d1)" d="M 219.357285 219.754643 
L 233.505569 216.524821 
L 232.047859 222.435756 
L 210.592263 226.129645 
z
" style="fill:#04b9ea;fill-opacity:0.65;"/>
    <path clip-path="url(#p67f97fa1d1)" d="M 247.872619 212.193585 
L 261.457209 206.872406 
L 274.44112 209.804723 
L 253.852805 216.941159 
z
" style="fill:#2586f5;fill-opacity:0.65;"/>
    <path clip-path="url(#p67f97fa1d1)" d="M 174.680616 228.303491 
L 191.016474 228.03008 
L 175.328883 234.895873 
L 153.500744 234.129879 
z
" style="fill:#26dade;fill-opacity:0.65;"/>
    <path clip-path="url(#p67f97fa1d1)" d="M 233.505569 216.524821 
L 247.872619 212.193585 
L 253.852805 216.941159 
L 232.047859 222.435756 
z
" style="fill:#11a0f1;fill-opacity:0.65;"/>
    <path clip-path="url(#p67f97fa1d1)" d="M 292.351775 201.339882 
L 306.354413 191.986522 
L 330.390323 191.122751 
L 311.733529 203.198938 
z
" style="fill:#6726fe;fill-opacity:0.65;"/>
    <path clip-path="url(#p67f97fa1d1)" d="M 191.016474 228.03008 
L 210.592263 226.129645 
L 201.635254 233.406247 
L 175.328883 234.895873 
z
" style="fill:#09bee9;fill-opacity:0.65;"/>
    <path clip-path="url(#p67f97fa1d1)" d="M 274.44112 209.804723 
L 292.351775 201.339882 
L 311.733529 203.198938 
L 287.702621 213.980021 
z
" style="fill:#573efd;fill-opacity:0.65;"/>
    <path clip-path="url(#p67f97fa1d1)" d="M 210.592263 226.129645 
L 232.047859 222.435756 
L 230.556311 229.403755 
L 201.635254 233.406247 
z
" style="fill:#139df1;fill-opacity:0.65;"/>
    <path clip-path="url(#p67f97fa1d1)" d="M 253.852805 216.941159 
L 274.44112 209.804723 
L 287.702621 213.980021 
L 259.970812 222.85853 
z
" style="fill:#435cfb;fill-opacity:0.65;"/>
    <path clip-path="url(#p67f97fa1d1)" d="M 232.047859 222.435756 
L 253.852805 216.941159 
L 259.970812 222.85853 
L 230.556311 229.403755 
z
" style="fill:#2e7bf7;fill-opacity:0.65;"/>
   </g>
  </g>
 </g>
 <defs>
  <clipPath id="p67f97fa1d1">
   <rect height="434.88" width="446.4" x="7.2" y="7.2"/>
  </clipPath>
 </defs>
</svg>
