<?xml version="1.0" encoding="utf-8" standalone="no"?>
<!DOCTYPE svg PUBLIC "-//W3C//DTD SVG 1.1//EN"
  "http://www.w3.org/Graphics/SVG/1.1/DTD/svg11.dtd">
<!-- Created with matplotlib (https://matplotlib.org/) -->
<svg height="449.28pt" version="1.1" viewBox="0 0 460.8 449.28" width="460.8pt" xmlns="http://www.w3.org/2000/svg" xmlns:xlink="http://www.w3.org/1999/xlink">
 <defs>
  <style type="text/css">
*{stroke-linecap:butt;stroke-linejoin:round;}
  </style>
 </defs>
 <g id="figure_1">
  <g id="patch_1">
   <path d="M 0 449.28 
L 460.8 449.28 
L 460.8 0 
L 0 0 
z
" style="fill:none;"/>
  </g>
  <g id="patch_2">
   <path d="M 7.2 442.08 
L 453.6 442.08 
L 453.6 7.2 
L 7.2 7.2 
z
" style="fill:none;"/>
  </g>
  <g id="pane3d_1">
   <g id="patch_3">
    <path d="M 74.347243 361.534898 
L 167.044895 260.003268 
L 164.103481 48.053769 
L 66.834492 134.494366 
" style="fill:#f2f2f2;opacity:0.5;stroke:#f2f2f2;stroke-linejoin:miter;"/>
   </g>
  </g>
  <g id="pane3d_2">
   <g id="patch_4">
    <path d="M 167.044895 260.003268 
L 389.809404 294.972336 
L 396.519867 77.751297 
L 164.103481 48.053769 
" style="fill:#e6e6e6;opacity:0.5;stroke:#e6e6e6;stroke-linejoin:miter;"/>
   </g>
  </g>
  <g id="pane3d_3">
   <g id="patch_5">
    <path d="M 74.347243 361.534898 
L 314.552153 403.139986 
L 389.809404 294.972336 
L 167.044895 260.003268 
" style="fill:#ececec;opacity:0.5;stroke:#ececec;stroke-linejoin:miter;"/>
   </g>
  </g>
  <g id="axis3d_1">
   <g id="line2d_1">
    <path d="M 74.347243 361.534898 
L 314.552153 403.139986 
" style="fill:none;stroke:#000000;stroke-linecap:square;stroke-width:0.8;"/>
   </g>
   <g id="text_1">
    <!-- $\mathrm{Re} z$ -->
    <defs>
     <path d="M 44.390625 34.1875 
Q 47.5625 33.109375 50.5625 29.59375 
Q 53.5625 26.078125 56.59375 19.921875 
L 66.609375 0 
L 56 0 
L 46.6875 18.703125 
Q 43.0625 26.03125 39.671875 28.421875 
Q 36.28125 30.8125 30.421875 30.8125 
L 19.671875 30.8125 
L 19.671875 0 
L 9.8125 0 
L 9.8125 72.90625 
L 32.078125 72.90625 
Q 44.578125 72.90625 50.734375 67.671875 
Q 56.890625 62.453125 56.890625 51.90625 
Q 56.890625 45.015625 53.6875 40.46875 
Q 50.484375 35.9375 44.390625 34.1875 
z
M 19.671875 64.796875 
L 19.671875 38.921875 
L 32.078125 38.921875 
Q 39.203125 38.921875 42.84375 42.21875 
Q 46.484375 45.515625 46.484375 51.90625 
Q 46.484375 58.296875 42.84375 61.546875 
Q 39.203125 64.796875 32.078125 64.796875 
z
" id="DejaVuSans-82"/>
     <path d="M 56.203125 29.59375 
L 56.203125 25.203125 
L 14.890625 25.203125 
Q 15.484375 15.921875 20.484375 11.0625 
Q 25.484375 6.203125 34.421875 6.203125 
Q 39.59375 6.203125 44.453125 7.46875 
Q 49.3125 8.734375 54.109375 11.28125 
L 54.109375 2.78125 
Q 49.265625 0.734375 44.1875 -0.34375 
Q 39.109375 -1.421875 33.890625 -1.421875 
Q 20.796875 -1.421875 13.15625 6.1875 
Q 5.515625 13.8125 5.515625 26.8125 
Q 5.515625 40.234375 12.765625 48.109375 
Q 20.015625 56 32.328125 56 
Q 43.359375 56 49.78125 48.890625 
Q 56.203125 41.796875 56.203125 29.59375 
z
M 47.21875 32.234375 
Q 47.125 39.59375 43.09375 43.984375 
Q 39.0625 48.390625 32.421875 48.390625 
Q 24.90625 48.390625 20.390625 44.140625 
Q 15.875 39.890625 15.1875 32.171875 
z
" id="DejaVuSans-101"/>
     <path d="M 11.625 54.6875 
L 54.296875 54.6875 
L 52.6875 46.484375 
L 11.53125 7.171875 
L 45.515625 7.171875 
L 44.09375 0 
L -0.296875 0 
L 1.3125 8.203125 
L 42.484375 47.515625 
L 10.203125 47.515625 
z
" id="DejaVuSans-Oblique-122"/>
    </defs>
    <g transform="translate(173.083798 419.699781)rotate(-350.173483)scale(0.1 -0.1)">
     <use transform="translate(0 0.09375)" xlink:href="#DejaVuSans-82"/>
     <use transform="translate(69.482422 0.09375)" xlink:href="#DejaVuSans-101"/>
     <use transform="translate(131.005859 0.09375)" xlink:href="#DejaVuSans-Oblique-122"/>
    </g>
   </g>
   <g id="Line3DCollection_1">
    <path d="M 88.957575 364.065505 
L 180.629439 262.135739 
L 178.259265 49.862556 
" style="fill:none;stroke:#b0b0b0;stroke-width:0.8;"/>
    <path d="M 140.287841 372.956248 
L 228.319791 269.622062 
L 227.972855 56.214822 
" style="fill:none;stroke:#b0b0b0;stroke-width:0.8;"/>
    <path d="M 192.358621 381.975254 
L 276.64091 277.207402 
L 278.372284 62.654723 
" style="fill:none;stroke:#b0b0b0;stroke-width:0.8;"/>
    <path d="M 245.186054 391.125316 
L 325.605393 284.893736 
L 329.471843 69.184085 
" style="fill:none;stroke:#b0b0b0;stroke-width:0.8;"/>
    <path d="M 298.786755 400.409314 
L 375.226174 292.683093 
L 381.286224 75.804784 
" style="fill:none;stroke:#b0b0b0;stroke-width:0.8;"/>
   </g>
   <g id="xtick_1">
    <g id="line2d_2">
     <path d="M 89.755978 363.177762 
L 87.357334 365.844809 
" style="fill:none;stroke:#000000;stroke-linecap:square;stroke-width:0.8;"/>
    </g>
    <g id="text_2">
     <!-- −10 -->
     <defs>
      <path d="M 10.59375 35.5 
L 73.1875 35.5 
L 73.1875 27.203125 
L 10.59375 27.203125 
z
" id="DejaVuSans-8722"/>
      <path d="M 12.40625 8.296875 
L 28.515625 8.296875 
L 28.515625 63.921875 
L 10.984375 60.40625 
L 10.984375 69.390625 
L 28.421875 72.90625 
L 38.28125 72.90625 
L 38.28125 8.296875 
L 54.390625 8.296875 
L 54.390625 0 
L 12.40625 0 
z
" id="DejaVuSans-49"/>
      <path d="M 31.78125 66.40625 
Q 24.171875 66.40625 20.328125 58.90625 
Q 16.5 51.421875 16.5 36.375 
Q 16.5 21.390625 20.328125 13.890625 
Q 24.171875 6.390625 31.78125 6.390625 
Q 39.453125 6.390625 43.28125 13.890625 
Q 47.125 21.390625 47.125 36.375 
Q 47.125 51.421875 43.28125 58.90625 
Q 39.453125 66.40625 31.78125 66.40625 
z
M 31.78125 74.21875 
Q 44.046875 74.21875 50.515625 64.515625 
Q 56.984375 54.828125 56.984375 36.375 
Q 56.984375 17.96875 50.515625 8.265625 
Q 44.046875 -1.421875 31.78125 -1.421875 
Q 19.53125 -1.421875 13.0625 8.265625 
Q 6.59375 17.96875 6.59375 36.375 
Q 6.59375 54.828125 13.0625 64.515625 
Q 19.53125 74.21875 31.78125 74.21875 
z
" id="DejaVuSans-48"/>
     </defs>
     <g transform="translate(73.718193 388.15502)scale(0.1 -0.1)">
      <use xlink:href="#DejaVuSans-8722"/>
      <use x="83.789062" xlink:href="#DejaVuSans-49"/>
      <use x="147.412109" xlink:href="#DejaVuSans-48"/>
     </g>
    </g>
   </g>
   <g id="xtick_2">
    <g id="line2d_3">
     <path d="M 141.05499 372.055749 
L 138.750221 374.761147 
" style="fill:none;stroke:#000000;stroke-linecap:square;stroke-width:0.8;"/>
    </g>
    <g id="text_3">
     <!-- −5 -->
     <defs>
      <path d="M 10.796875 72.90625 
L 49.515625 72.90625 
L 49.515625 64.59375 
L 19.828125 64.59375 
L 19.828125 46.734375 
Q 21.96875 47.46875 24.109375 47.828125 
Q 26.265625 48.1875 28.421875 48.1875 
Q 40.625 48.1875 47.75 41.5 
Q 54.890625 34.8125 54.890625 23.390625 
Q 54.890625 11.625 47.5625 5.09375 
Q 40.234375 -1.421875 26.90625 -1.421875 
Q 22.3125 -1.421875 17.546875 -0.640625 
Q 12.796875 0.140625 7.71875 1.703125 
L 7.71875 11.625 
Q 12.109375 9.234375 16.796875 8.0625 
Q 21.484375 6.890625 26.703125 6.890625 
Q 35.15625 6.890625 40.078125 11.328125 
Q 45.015625 15.765625 45.015625 23.390625 
Q 45.015625 31 40.078125 35.4375 
Q 35.15625 39.890625 26.703125 39.890625 
Q 22.75 39.890625 18.8125 39.015625 
Q 14.890625 38.140625 10.796875 36.28125 
z
" id="DejaVuSans-53"/>
     </defs>
     <g transform="translate(128.313066 397.1844)scale(0.1 -0.1)">
      <use xlink:href="#DejaVuSans-8722"/>
      <use x="83.789062" xlink:href="#DejaVuSans-53"/>
     </g>
    </g>
   </g>
   <g id="xtick_3">
    <g id="line2d_4">
     <path d="M 193.093528 381.061721 
L 190.885601 383.806304 
" style="fill:none;stroke:#000000;stroke-linecap:square;stroke-width:0.8;"/>
    </g>
    <g id="text_4">
     <!-- 0 -->
     <g transform="translate(184.659951 406.34434)scale(0.1 -0.1)">
      <use xlink:href="#DejaVuSans-48"/>
     </g>
    </g>
   </g>
   <g id="xtick_4">
    <g id="line2d_5">
     <path d="M 245.887698 390.198465 
L 243.779684 392.98309 
" style="fill:none;stroke:#000000;stroke-linecap:square;stroke-width:0.8;"/>
    </g>
    <g id="text_5">
     <!-- 5 -->
     <g transform="translate(237.576652 415.637694)scale(0.1 -0.1)">
      <use xlink:href="#DejaVuSans-53"/>
     </g>
    </g>
   </g>
   <g id="xtick_5">
    <g id="line2d_6">
     <path d="M 299.45408 399.468852 
L 297.449152 402.294401 
" style="fill:none;stroke:#000000;stroke-linecap:square;stroke-width:0.8;"/>
    </g>
    <g id="text_6">
     <!-- 10 -->
     <g transform="translate(288.088482 425.067397)scale(0.1 -0.1)">
      <use xlink:href="#DejaVuSans-49"/>
      <use x="63.623047" xlink:href="#DejaVuSans-48"/>
     </g>
    </g>
   </g>
  </g>
  <g id="axis3d_2">
   <g id="line2d_7">
    <path d="M 389.809404 294.972336 
L 314.552153 403.139986 
" style="fill:none;stroke:#000000;stroke-linecap:square;stroke-width:0.8;"/>
   </g>
   <g id="text_7">
    <!-- $\mathrm{Im} z$ -->
    <defs>
     <path d="M 9.8125 72.90625 
L 19.671875 72.90625 
L 19.671875 0 
L 9.8125 0 
z
" id="DejaVuSans-73"/>
     <path d="M 52 44.1875 
Q 55.375 50.25 60.0625 53.125 
Q 64.75 56 71.09375 56 
Q 79.640625 56 84.28125 50.015625 
Q 88.921875 44.046875 88.921875 33.015625 
L 88.921875 0 
L 79.890625 0 
L 79.890625 32.71875 
Q 79.890625 40.578125 77.09375 44.375 
Q 74.3125 48.1875 68.609375 48.1875 
Q 61.625 48.1875 57.5625 43.546875 
Q 53.515625 38.921875 53.515625 30.90625 
L 53.515625 0 
L 44.484375 0 
L 44.484375 32.71875 
Q 44.484375 40.625 41.703125 44.40625 
Q 38.921875 48.1875 33.109375 48.1875 
Q 26.21875 48.1875 22.15625 43.53125 
Q 18.109375 38.875 18.109375 30.90625 
L 18.109375 0 
L 9.078125 0 
L 9.078125 54.6875 
L 18.109375 54.6875 
L 18.109375 46.1875 
Q 21.1875 51.21875 25.484375 53.609375 
Q 29.78125 56 35.6875 56 
Q 41.65625 56 45.828125 52.96875 
Q 50 49.953125 52 44.1875 
z
" id="DejaVuSans-109"/>
    </defs>
    <g transform="translate(376.362719 383.303868)rotate(-55.171874)scale(0.1 -0.1)">
     <use transform="translate(0 0.09375)" xlink:href="#DejaVuSans-73"/>
     <use transform="translate(29.445312 0.09375)" xlink:href="#DejaVuSans-109"/>
     <use transform="translate(126.857422 0.09375)" xlink:href="#DejaVuSans-Oblique-122"/>
    </g>
   </g>
   <g id="Line3DCollection_2">
    <path d="M 73.538931 128.536294 
L 80.714077 354.561313 
L 319.734358 395.691574 
" style="fill:none;stroke:#b0b0b0;stroke-width:0.8;"/>
    <path d="M 96.027027 108.551667 
L 102.094056 331.143847 
L 337.122003 370.70022 
" style="fill:none;stroke:#b0b0b0;stroke-width:0.8;"/>
    <path d="M 117.638989 89.345639 
L 122.676394 308.600036 
L 353.840129 346.671167 
" style="fill:none;stroke:#b0b0b0;stroke-width:0.8;"/>
    <path d="M 138.425041 70.873578 
L 142.504913 286.881882 
L 369.926677 323.549886 
" style="fill:none;stroke:#b0b0b0;stroke-width:0.8;"/>
    <path d="M 158.431638 53.094199 
L 161.62028 265.944843 
L 385.416773 301.285888 
" style="fill:none;stroke:#b0b0b0;stroke-width:0.8;"/>
   </g>
   <g id="xtick_6">
    <g id="line2d_8">
     <path d="M 317.758883 395.351638 
L 323.688475 396.371993 
" style="fill:none;stroke:#000000;stroke-linecap:square;stroke-width:0.8;"/>
    </g>
    <g id="text_8">
     <!-- −10 -->
     <g transform="translate(321.361528 416.506429)scale(0.1 -0.1)">
      <use xlink:href="#DejaVuSans-8722"/>
      <use x="83.789062" xlink:href="#DejaVuSans-49"/>
      <use x="147.412109" xlink:href="#DejaVuSans-48"/>
     </g>
    </g>
   </g>
   <g id="xtick_7">
    <g id="line2d_9">
     <path d="M 335.180746 370.373497 
L 341.007568 371.35418 
" style="fill:none;stroke:#000000;stroke-linecap:square;stroke-width:0.8;"/>
    </g>
    <g id="text_9">
     <!-- −5 -->
     <g transform="translate(341.681116 391.270668)scale(0.1 -0.1)">
      <use xlink:href="#DejaVuSans-8722"/>
      <use x="83.789062" xlink:href="#DejaVuSans-53"/>
     </g>
    </g>
   </g>
   <g id="xtick_8">
    <g id="line2d_10">
     <path d="M 351.931945 346.356902 
L 357.659439 347.300182 
" style="fill:none;stroke:#000000;stroke-linecap:square;stroke-width:0.8;"/>
    </g>
    <g id="text_10">
     <!-- 0 -->
     <g transform="translate(362.349766 367.006053)scale(0.1 -0.1)">
      <use xlink:href="#DejaVuSans-48"/>
     </g>
    </g>
   </g>
   <g id="xtick_9">
    <g id="line2d_11">
     <path d="M 368.050475 323.247379 
L 373.681918 324.155356 
" style="fill:none;stroke:#000000;stroke-linecap:square;stroke-width:0.8;"/>
    </g>
    <g id="text_11">
     <!-- 5 -->
     <g transform="translate(378.20639 343.657582)scale(0.1 -0.1)">
      <use xlink:href="#DejaVuSans-53"/>
     </g>
    </g>
   </g>
   <g id="xtick_10">
    <g id="line2d_12">
     <path d="M 383.571515 300.994492 
L 389.110026 301.869112 
" style="fill:none;stroke:#000000;stroke-linecap:square;stroke-width:0.8;"/>
    </g>
    <g id="text_12">
     <!-- 10 -->
     <g transform="translate(390.294169 321.174332)scale(0.1 -0.1)">
      <use xlink:href="#DejaVuSans-49"/>
      <use x="63.623047" xlink:href="#DejaVuSans-48"/>
     </g>
    </g>
   </g>
  </g>
  <g id="axis3d_3">
   <g id="line2d_13">
    <path d="M 389.809404 294.972336 
L 396.519867 77.751297 
" style="fill:none;stroke:#000000;stroke-linecap:square;stroke-width:0.8;"/>
   </g>
   <g id="text_13">
    <!-- $\mathrm{Im} f_n(z), \;n=-1,0,1$ -->
    <defs>
     <path d="M 47.796875 75.984375 
L 46.390625 68.5 
L 37.796875 68.5 
Q 32.90625 68.5 30.6875 66.578125 
Q 28.46875 64.65625 27.390625 59.515625 
L 26.421875 54.6875 
L 41.21875 54.6875 
L 39.890625 47.703125 
L 25.09375 47.703125 
L 15.828125 0 
L 6.78125 0 
L 16.109375 47.703125 
L 7.515625 47.703125 
L 8.796875 54.6875 
L 17.390625 54.6875 
L 18.109375 58.5 
Q 19.96875 68.171875 24.625 72.078125 
Q 29.296875 75.984375 39.3125 75.984375 
z
" id="DejaVuSans-Oblique-102"/>
     <path d="M 55.71875 33.015625 
L 49.3125 0 
L 40.28125 0 
L 46.6875 32.671875 
Q 47.125 34.96875 47.359375 36.71875 
Q 47.609375 38.484375 47.609375 39.5 
Q 47.609375 43.609375 45.015625 45.890625 
Q 42.4375 48.1875 37.796875 48.1875 
Q 30.5625 48.1875 25.34375 43.375 
Q 20.125 38.578125 18.5 30.328125 
L 12.5 0 
L 3.515625 0 
L 14.109375 54.6875 
L 23.09375 54.6875 
L 21.296875 46.09375 
Q 25.046875 50.828125 30.3125 53.40625 
Q 35.59375 56 41.40625 56 
Q 48.640625 56 52.609375 52.09375 
Q 56.59375 48.1875 56.59375 41.109375 
Q 56.59375 39.359375 56.375 37.359375 
Q 56.15625 35.359375 55.71875 33.015625 
z
" id="DejaVuSans-Oblique-110"/>
     <path d="M 31 75.875 
Q 24.46875 64.65625 21.28125 53.65625 
Q 18.109375 42.671875 18.109375 31.390625 
Q 18.109375 20.125 21.3125 9.0625 
Q 24.515625 -2 31 -13.1875 
L 23.1875 -13.1875 
Q 15.875 -1.703125 12.234375 9.375 
Q 8.59375 20.453125 8.59375 31.390625 
Q 8.59375 42.28125 12.203125 53.3125 
Q 15.828125 64.359375 23.1875 75.875 
z
" id="DejaVuSans-40"/>
     <path d="M 8.015625 75.875 
L 15.828125 75.875 
Q 23.140625 64.359375 26.78125 53.3125 
Q 30.421875 42.28125 30.421875 31.390625 
Q 30.421875 20.453125 26.78125 9.375 
Q 23.140625 -1.703125 15.828125 -13.1875 
L 8.015625 -13.1875 
Q 14.5 -2 17.703125 9.0625 
Q 20.90625 20.125 20.90625 31.390625 
Q 20.90625 42.671875 17.703125 53.65625 
Q 14.5 64.65625 8.015625 75.875 
z
" id="DejaVuSans-41"/>
     <path d="M 11.71875 12.40625 
L 22.015625 12.40625 
L 22.015625 4 
L 14.015625 -11.625 
L 7.71875 -11.625 
L 11.71875 4 
z
" id="DejaVuSans-44"/>
     <path d="M 10.59375 45.40625 
L 73.1875 45.40625 
L 73.1875 37.203125 
L 10.59375 37.203125 
z
M 10.59375 25.484375 
L 73.1875 25.484375 
L 73.1875 17.1875 
L 10.59375 17.1875 
z
" id="DejaVuSans-61"/>
    </defs>
    <g transform="translate(427.27163 233.462825)rotate(-88.230563)scale(0.1 -0.1)">
     <use transform="translate(0 0.015625)" xlink:href="#DejaVuSans-73"/>
     <use transform="translate(29.445312 0.015625)" xlink:href="#DejaVuSans-109"/>
     <use transform="translate(126.857422 0.015625)" xlink:href="#DejaVuSans-Oblique-102"/>
     <use transform="translate(162.0625 -16.390625)scale(0.7)" xlink:href="#DejaVuSans-Oblique-110"/>
     <use transform="translate(209.162109 0.015625)" xlink:href="#DejaVuSans-40"/>
     <use transform="translate(248.175781 0.015625)" xlink:href="#DejaVuSans-Oblique-122"/>
     <use transform="translate(300.666016 0.015625)" xlink:href="#DejaVuSans-41"/>
     <use transform="translate(339.679688 0.015625)" xlink:href="#DejaVuSans-44"/>
     <use transform="translate(418.008354 0.015625)" xlink:href="#DejaVuSans-Oblique-110"/>
     <use transform="translate(500.869683 0.015625)" xlink:href="#DejaVuSans-61"/>
     <use transform="translate(623.623589 0.015625)" xlink:href="#DejaVuSans-8722"/>
     <use transform="translate(726.895073 0.015625)" xlink:href="#DejaVuSans-49"/>
     <use transform="translate(790.51812 0.015625)" xlink:href="#DejaVuSans-44"/>
     <use transform="translate(841.787651 0.015625)" xlink:href="#DejaVuSans-48"/>
     <use transform="translate(905.410698 0.015625)" xlink:href="#DejaVuSans-44"/>
     <use transform="translate(956.680229 0.015625)" xlink:href="#DejaVuSans-49"/>
    </g>
   </g>
   <g id="Line3DCollection_3">
    <path d="M 389.938095 290.80653 
L 166.988414 255.933356 
L 74.203517 357.191386 
" style="fill:none;stroke:#b0b0b0;stroke-width:0.8;"/>
    <path d="M 391.499408 240.26604 
L 166.303388 206.572491 
L 72.458704 304.461932 
" style="fill:none;stroke:#b0b0b0;stroke-width:0.8;"/>
    <path d="M 393.092808 188.686887 
L 165.604714 156.228091 
L 70.675951 250.58591 
" style="fill:none;stroke:#b0b0b0;stroke-width:0.8;"/>
    <path d="M 394.719294 136.036719 
L 164.891978 104.870464 
L 68.854008 195.525511 
" style="fill:none;stroke:#b0b0b0;stroke-width:0.8;"/>
    <path d="M 396.379908 82.281828 
L 164.164751 52.468712 
L 66.991566 139.241246 
" style="fill:none;stroke:#b0b0b0;stroke-width:0.8;"/>
   </g>
   <g id="xtick_11">
    <g id="line2d_14">
     <path d="M 388.100067 290.519031 
L 393.616866 291.381953 
" style="fill:none;stroke:#000000;stroke-linecap:square;stroke-width:0.8;"/>
    </g>
    <g id="text_14">
     <!-- $-2\pi$ -->
     <defs>
      <path d="M 19.1875 8.296875 
L 53.609375 8.296875 
L 53.609375 0 
L 7.328125 0 
L 7.328125 8.296875 
Q 12.9375 14.109375 22.625 23.890625 
Q 32.328125 33.6875 34.8125 36.53125 
Q 39.546875 41.84375 41.421875 45.53125 
Q 43.3125 49.21875 43.3125 52.78125 
Q 43.3125 58.59375 39.234375 62.25 
Q 35.15625 65.921875 28.609375 65.921875 
Q 23.96875 65.921875 18.8125 64.3125 
Q 13.671875 62.703125 7.8125 59.421875 
L 7.8125 69.390625 
Q 13.765625 71.78125 18.9375 73 
Q 24.125 74.21875 28.421875 74.21875 
Q 39.75 74.21875 46.484375 68.546875 
Q 53.21875 62.890625 53.21875 53.421875 
Q 53.21875 48.921875 51.53125 44.890625 
Q 49.859375 40.875 45.40625 35.40625 
Q 44.1875 33.984375 37.640625 27.21875 
Q 31.109375 20.453125 19.1875 8.296875 
z
" id="DejaVuSans-50"/>
      <path d="M 9.125 54.6875 
L 61.53125 54.6875 
L 59.765625 45.703125 
L 52.875 45.703125 
L 46.34375 12.109375 
Q 45.65625 8.59375 46.578125 7.03125 
Q 47.46875 5.515625 50.140625 5.515625 
Q 50.875 5.515625 51.953125 5.671875 
Q 53.078125 5.765625 53.421875 5.8125 
L 52.15625 -0.6875 
Q 50.34375 -1.3125 48.484375 -1.609375 
Q 46.578125 -1.90625 44.78125 -1.90625 
Q 38.921875 -1.90625 37.3125 1.265625 
Q 35.6875 4.5 37.359375 13.09375 
L 43.703125 45.703125 
L 23.53125 45.703125 
L 14.65625 0 
L 5.46875 0 
L 14.359375 45.703125 
L 7.375 45.703125 
z
" id="DejaVuSans-Oblique-960"/>
     </defs>
     <g transform="translate(394.468268 295.26582)scale(0.1 -0.1)">
      <use transform="translate(0 0.78125)" xlink:href="#DejaVuSans-8722"/>
      <use transform="translate(83.789062 0.78125)" xlink:href="#DejaVuSans-50"/>
      <use transform="translate(147.412109 0.78125)" xlink:href="#DejaVuSans-Oblique-960"/>
     </g>
    </g>
   </g>
   <g id="xtick_12">
    <g id="line2d_15">
     <path d="M 389.642302 239.988182 
L 395.216392 240.822171 
" style="fill:none;stroke:#000000;stroke-linecap:square;stroke-width:0.8;"/>
    </g>
    <g id="text_15">
     <!-- $-\pi$ -->
     <g transform="translate(399.376786 244.830678)scale(0.1 -0.1)">
      <use transform="translate(0 0.3125)" xlink:href="#DejaVuSans-8722"/>
      <use transform="translate(83.789062 0.3125)" xlink:href="#DejaVuSans-Oblique-960"/>
     </g>
    </g>
   </g>
   <g id="xtick_13">
    <g id="line2d_16">
     <path d="M 391.216224 188.419129 
L 396.848806 189.222806 
" style="fill:none;stroke:#000000;stroke-linecap:square;stroke-width:0.8;"/>
    </g>
    <g id="text_16">
     <!-- 0 -->
     <g transform="translate(405.13907 193.361879)scale(0.1 -0.1)">
      <use xlink:href="#DejaVuSans-48"/>
     </g>
    </g>
   </g>
   <g id="xtick_14">
    <g id="line2d_17">
     <path d="M 392.822819 135.779543 
L 398.515134 136.551463 
" style="fill:none;stroke:#000000;stroke-linecap:square;stroke-width:0.8;"/>
    </g>
    <g id="text_17">
     <!-- $\pi$ -->
     <g transform="translate(407.049958 140.827318)scale(0.1 -0.1)">
      <use transform="translate(0 0.3125)" xlink:href="#DejaVuSans-Oblique-960"/>
     </g>
    </g>
   </g>
   <g id="xtick_15">
    <g id="line2d_18">
     <path d="M 394.463116 82.035739 
L 400.216443 82.774385 
" style="fill:none;stroke:#000000;stroke-linecap:square;stroke-width:0.8;"/>
    </g>
    <g id="text_18">
     <!-- $2\pi$ -->
     <g transform="translate(405.716832 87.193546)scale(0.1 -0.1)">
      <use transform="translate(0 0.78125)" xlink:href="#DejaVuSans-50"/>
      <use transform="translate(63.623047 0.78125)" xlink:href="#DejaVuSans-Oblique-960"/>
     </g>
    </g>
   </g>
  </g>
  <g id="axes_1">
   <g id="line2d_19">
    <path clip-path="url(#p024a15aebe)" d="M 236.326445 218.747361 
L 236.326445 218.747361 
L 236.326445 218.747361 
L 236.326445 218.747361 
L 236.326445 218.747361 
L 236.326445 218.747361 
L 236.326445 218.747361 
L 236.326445 218.747361 
L 236.326445 218.747361 
L 236.326445 218.747361 
L 236.326445 218.747361 
L 236.326445 218.747361 
L 236.326445 218.747361 
L 236.326445 218.747361 
L 236.326445 218.747361 
L 236.326445 218.747361 
L 236.326445 218.747361 
L 236.326445 218.747361 
L 236.326445 218.747361 
L 236.326445 218.747361 
L 236.326445 218.747361 
L 236.326445 218.747361 
L 236.326445 218.747361 
L 236.326445 218.747361 
L 236.326445 218.747361 
L 236.326445 218.747361 
L 236.326445 218.747361 
L 236.326445 218.747361 
L 236.326445 218.747361 
L 236.326445 218.747361 
L 236.326445 218.747361 
L 236.326445 218.747361 
L 236.326445 218.747361 
L 236.326445 218.747361 
L 236.326445 218.747361 
L 236.326445 218.747361 
L 236.326445 218.747361 
L 236.326445 218.747361 
L 236.326445 218.747361 
L 236.326445 218.747361 
L 236.326445 218.747361 
L 236.326445 218.747361 
L 236.326445 218.747361 
L 236.326445 218.747361 
L 236.326445 218.747361 
L 236.326445 218.747361 
L 236.326445 218.747361 
L 236.326445 218.747361 
L 236.326445 218.747361 
L 236.326445 218.747361 
" style="fill:none;stroke:#000000;stroke-linecap:square;stroke-width:0.8;"/>
   </g>
   <g id="line2d_20">
    <path clip-path="url(#p024a15aebe)" d="M 247.848196 202.51161 
L 248.520342 201.420354 
L 248.393186 200.594547 
L 247.477955 200.108786 
L 245.83717 200.028965 
L 243.579929 200.407658 
L 240.854375 201.280209 
L 237.837954 202.661717 
L 234.726086 204.54506 
L 231.719911 206.900049 
L 229.013773 209.673768 
L 226.783084 212.792122 
L 225.173223 216.162571 
L 224.290101 219.677981 
L 224.19299 223.221456 
L 224.890161 226.671945 
L 226.337746 229.910338 
L 228.442058 232.825684 
L 231.065384 235.321113 
L 234.034952 237.319028 
L 237.154515 238.765159 
L 240.217712 239.631129 
L 243.022197 239.91535 
L 245.383433 239.642146 
L 247.147096 238.859233 
L 248.199182 237.633778 
L 248.473139 236.047389 
L 247.953652 234.190465 
L 246.676961 232.15633 
L 244.727883 230.035571 
L 242.233882 227.910928 
L 239.35668 225.85302 
L 236.281976 223.917096 
L 233.207881 222.140958 
L 230.332689 220.544095 
L 227.842605 219.128034 
L 225.900065 217.877875 
L 224.633279 216.764892 
L 224.127638 215.750064 
L 224.419586 214.788323 
L 225.493476 213.833261 
L 227.281803 212.84197 
L 229.668999 211.77968 
L 232.498682 210.6238 
L 235.58398 209.367054 
L 238.720219 208.0194 
L 241.699039 206.608559 
L 244.322821 205.17909 
L 246.418284 203.790077 
L 247.848196 202.51161 
" style="fill:none;stroke:#000000;stroke-linecap:square;stroke-width:0.8;"/>
   </g>
   <g id="line2d_21">
    <path clip-path="url(#p024a15aebe)" d="M 259.440692 196.730787 
L 260.76059 194.470951 
L 260.476463 192.577229 
L 258.61835 191.201228 
L 255.317918 190.47873 
L 250.797401 190.520962 
L 245.35366 191.407402 
L 239.338695 193.180321 
L 233.137858 195.84116 
L 227.146832 199.348795 
L 221.74832 203.619752 
L 217.289313 208.530422 
L 214.059854 213.921365 
L 212.274317 219.60373 
L 212.056368 225.36776 
L 213.428852 230.993137 
L 216.309798 236.260757 
L 220.515469 240.965225 
L 225.770911 244.927175 
L 231.727719 248.00435 
L 237.987957 250.100391 
L 244.132371 251.170424 
L 249.750459 251.222856 
L 254.469697 250.317214 
L 257.98135 248.55828 
L 260.060776 246.087211 
L 260.580864 243.070572 
L 259.518059 239.688341 
L 256.951178 236.121915 
L 253.053812 232.54297 
L 248.081412 229.103838 
L 242.354311 225.929803 
L 236.237858 223.113541 
L 230.120706 220.711785 
L 224.392165 218.744182 
L 219.419434 217.194304 
L 215.525565 216.012722 
L 212.969075 215.12205 
L 211.92635 214.423789 
L 212.47809 213.806718 
L 214.601149 213.15643 
L 218.166983 212.365449 
L 222.947588 211.343183 
L 228.629177 210.024893 
L 234.833045 208.378801 
L 241.142194 206.410605 
L 247.131498 204.164887 
L 252.398674 201.723226 
L 256.59321 199.199198 
L 259.440692 196.730787 
" style="fill:none;stroke:#000000;stroke-linecap:square;stroke-width:0.8;"/>
   </g>
   <g id="line2d_22">
    <path clip-path="url(#p024a15aebe)" d="M 271.092386 192.665257 
L 273.034735 189.226699 
L 272.564106 186.232558 
L 269.736893 183.910813 
L 264.760231 182.465757 
L 257.97309 182.065704 
L 249.821155 182.833215 
L 240.827721 184.837869 
L 231.562366 188.091508 
L 222.608649 192.545815 
L 214.531677 198.092242 
L 207.846258 204.564396 
L 202.986481 211.743138 
L 200.277878 219.364703 
L 199.913851 227.132035 
L 201.938432 234.729316 
L 206.237676 241.839229 
L 212.541763 248.162024 
L 220.439152 253.43491 
L 229.402908 257.449932 
L 238.827702 260.068397 
L 248.074445 261.230096 
L 256.518229 260.956187 
L 263.594734 259.345403 
L 268.8405 256.564124 
L 271.923521 252.831614 
L 272.662088 248.402224 
L 271.031484 243.546458 
L 267.159468 238.532643 
L 261.312441 233.610545 
L 253.874565 228.997765 
L 245.322011 224.869342 
L 236.194165 221.350591 
L 227.063092 218.513066 
L 218.502154 216.37343 
L 211.054423 214.895101 
L 205.201562 213.992559 
L 201.334102 213.538329 
L 199.724546 213.372589 
L 200.505252 213.315255 
L 203.65346 213.180154 
L 208.985973 212.790525 
L 216.165531 211.994755 
L 224.720004 210.680927 
L 234.073968 208.78862 
L 243.590501 206.316577 
L 252.619396 203.325198 
L 260.546869 199.933524 
L 266.841576 196.31103 
L 271.092386 192.665257 
" style="fill:none;stroke:#000000;stroke-linecap:square;stroke-width:0.8;"/>
   </g>
   <g id="line2d_23">
    <path clip-path="url(#p024a15aebe)" d="M 282.799404 189.486528 
L 285.338413 184.864279 
L 284.651807 180.755905 
L 280.829861 177.464923 
L 274.161327 175.262351 
L 265.105253 174.371404 
L 254.25602 174.955824 
L 242.304821 177.111556 
L 229.999745 180.86133 
L 218.105624 186.151786 
L 207.364093 192.853003 
L 198.45406 200.760634 
L 191.953018 209.601137 
L 188.30032 219.04077 
L 187.76445 228.699001 
L 190.41734 238.166641 
L 196.119386 247.028419 
L 204.51885 254.888865 
L 215.068404 261.399452 
L 227.059679 266.284222 
L 239.674097 269.360765 
L 252.045547 270.553749 
L 263.328234 269.899075 
L 272.762093 267.538104 
L 279.728613 263.702891 
L 283.791748 258.6946 
L 284.721221 252.858004 
L 282.498236 246.555051 
L 277.305798 240.140069 
L 269.507091 233.938402 
L 259.615696 228.229406 
L 248.260954 223.234055 
L 236.15089 219.106849 
L 224.034114 215.931569 
L 212.661287 213.720405 
L 202.746303 212.416147 
L 194.92733 211.89741 
L 189.728385 211.987028 
L 187.522938 212.463841 
L 188.502194 213.077987 
L 192.651614 213.56944 
L 199.739802 213.688985 
L 209.323562 213.220152 
L 220.771585 212.000017 
L 233.306829 209.936449 
L 246.064758 207.019497 
L 258.161672 203.325229 
L 268.765434 199.011384 
L 277.160388 194.305405 
L 282.799404 189.486528 
" style="fill:none;stroke:#000000;stroke-linecap:square;stroke-width:0.8;"/>
   </g>
   <g id="line2d_24">
    <path clip-path="url(#p024a15aebe)" d="M 294.559631 186.874123 
L 297.669122 181.064902 
L 296.737075 175.835404 
L 291.895159 171.563776 
L 283.519742 168.585831 
L 272.193077 167.177298 
L 258.657937 167.540924 
L 243.769941 169.797681 
L 228.450003 173.981167 
L 213.637727 180.034477 
L 200.245496 187.809262 
L 189.11262 197.067243 
L 180.959324 207.484957 
L 176.341355 218.662885 
L 175.60759 230.140178 
L 178.864613 241.415824 
L 185.953616 251.976309 
L 196.4453 261.328545 
L 209.657473 269.035433 
L 224.697437 274.750181 
L 240.527379 278.24483 
L 256.046768 279.42878 
L 270.18225 278.354407 
L 281.973984 275.20894 
L 290.648107 270.294053 
L 295.667963 263.996469 
L 296.760814 256.75389 
L 293.920881 249.020549 
L 287.392643 241.235859 
L 277.639936 233.798384 
L 265.306416 227.046033 
L 251.171971 221.242344 
L 236.108027 216.568114 
L 221.033083 213.11739 
L 206.868534 210.897046 
L 194.494109 209.829454 
L 184.702305 209.758283 
L 178.151892 210.457783 
L 175.321935 211.646171 
L 176.469527 213.003605 
L 181.596155 214.194797 
L 190.428796 214.895498 
L 202.421797 214.821032 
L 216.783929 213.754036 
L 232.531625 211.567934 
L 248.56491 208.242681 
L 263.758026 203.8702 
L 277.053567 198.648507 
L 287.548175 192.865383 
L 294.559631 186.874123 
" style="fill:none;stroke:#000000;stroke-linecap:square;stroke-width:0.8;"/>
   </g>
   <g id="line2d_25">
    <path clip-path="url(#p024a15aebe)" d="M 306.371727 184.663901 
L 310.025188 177.665132 
L 308.818233 171.311013 
L 302.931423 166.05336 
L 292.834603 162.290788 
L 279.236167 160.349067 
L 263.026823 160.467663 
L 245.223095 162.791073 
L 226.913094 167.363484 
L 209.204805 174.125594 
L 193.17567 182.913142 
L 179.821741 193.457473 
L 170.005233 205.389235 
L 164.400778 218.246934 
L 163.442878 231.492234 
L 167.279551 244.533587 
L 175.739361 256.758703 
L 188.319972 267.57472 
L 204.205386 276.452843 
L 222.315693 282.972331 
L 241.387737 286.857586 
L 260.078971 288.002408 
L 277.08164 286.477277 
L 291.232026 282.518482 
L 301.600672 276.501217 
L 307.553858 268.901358 
L 308.782591 260.251955 
L 305.301205 251.100274 
L 297.421807 241.969862 
L 285.712632 233.330204 
L 270.947995 225.574719 
L 254.055735 219.006407 
L 236.065567 213.829787 
L 218.059422 210.147558 
L 201.123022 207.960781 
L 186.29702 207.17196 
L 174.525994 207.591075 
L 166.604566 208.945268 
L 163.121816 210.893228 
L 164.407631 213.045321 
L 170.487334 214.989956 
L 181.052968 216.325572 
L 195.460069 216.696157 
L 212.756863 215.826637 
L 231.748316 213.553385 
L 251.091046 209.844998 
L 269.408493 204.80962 
L 285.410987 198.687327 
L 298.004132 191.8288 
L 306.371727 184.663901 
" style="fill:none;stroke:#000000;stroke-linecap:square;stroke-width:0.8;"/>
   </g>
   <g id="line2d_26">
    <path clip-path="url(#p024a15aebe)" d="M 318.234783 182.758479 
L 322.405393 174.567917 
L 320.89405 167.087602 
L 313.937693 160.842024 
L 302.105364 156.290566 
L 286.234355 153.806538 
L 267.36272 153.663795 
L 246.664334 156.028781 
L 225.38894 160.955848 
L 204.806632 168.384231 
L 186.154324 178.135992 
L 170.581165 189.915337 
L 159.090568 203.310764 
L 152.478427 217.802355 
L 151.270024 232.776945 
L 155.661598 247.553597 
L 165.475777 261.420597 
L 180.141877 273.683013 
L 198.711286 283.717049 
L 219.914017 291.024697 
L 242.255338 295.280452 
L 264.142903 296.362073 
L 284.027548 294.359735 
L 300.537524 289.561986 
L 312.587606 282.421445 
L 319.450685 273.506698 
L 320.787819 263.448487 
L 316.640564 252.887776 
L 307.394718 242.431239 
L 293.726544 232.617006 
L 276.541511 223.891066 
L 256.912826 216.592952 
L 236.023504 210.948549 
L 215.112616 207.067807 
L 195.423971 204.945694 
L 178.1543 204.465581 
L 164.397949 205.405216 
L 155.086335 207.446309 
L 150.922784 210.189355 
L 152.316759 213.175369 
L 159.325237 215.915642 
L 171.612153 217.929208 
L 188.438054 218.785712 
L 208.690107 218.149151 
L 230.956839 215.816279 
L 253.643333 211.743132 
L 275.113302 206.054547 
L 293.837702 199.03459 
L 308.527828 191.099555 
L 318.234783 182.758479 
" style="fill:none;stroke:#000000;stroke-linecap:square;stroke-width:0.8;"/>
   </g>
   <g id="line2d_27">
    <path clip-path="url(#p024a15aebe)" d="M 330.148152 181.09449 
L 334.8088 171.710041 
L 332.963576 163.103148 
L 324.91326 155.869944 
L 311.33168 150.528515 
L 293.187613 147.497201 
L 271.665749 147.081913 
L 248.093731 149.469431 
L 223.877447 154.723771 
L 200.442945 162.783484 
L 179.181122 173.458983 
L 161.390605 186.430347 
L 148.215146 201.247439 
L 140.574167 217.335303 
L 139.088801 234.008491 
L 144.01029 250.49777 
L 155.16212 265.991299 
L 171.910118 279.68969 
L 193.174385 290.87071 
L 217.492008 298.955611 
L 243.130334 303.566576 
L 268.239239 304.564803 
L 291.020983 302.061749 
L 309.891586 296.401456 
L 323.609958 288.117901 
L 331.359417 277.875924 
L 332.777481 266.406232 
L 327.940041 254.44407 
L 317.312567 242.678174 
L 301.682847 231.713044 
L 282.087916 222.044379 
L 259.743767 214.045445 
L 235.981831 207.961294 
L 212.192195 203.907886 
L 189.770663 201.873946 
L 170.065262 201.724569 
L 154.317749 203.206834 
L 143.597119 205.958832 
L 138.724996 209.524352 
L 140.197087 213.375673 
L 148.10985 216.946326 
L 162.106074 219.673974 
L 181.355327 221.050972 
L 204.583311 220.677178 
L 230.157117 218.307152 
L 256.221997 213.883186 
L 280.872801 207.547362 
L 302.333902 199.629784 
L 319.119062 190.61519 
L 330.148152 181.09449 
" style="fill:none;stroke:#000000;stroke-linecap:square;stroke-width:0.8;"/>
   </g>
   <g id="line2d_28">
    <path clip-path="url(#p024a15aebe)" d="M 342.111366 179.62798 
L 347.234663 169.04761 
L 345.026048 159.314546 
L 335.857586 151.095487 
L 320.513346 144.965142 
L 300.096012 141.384374 
L 275.93608 140.688829 
L 249.511372 143.08401 
L 222.378507 148.643041 
L 196.113454 157.304463 
L 172.255699 168.868908 
L 152.24975 182.995156 
L 137.378777 199.197782 
L 128.687884 216.850054 
L 126.899024 235.196722 
L 132.32522 253.381325 
L 144.79771 270.49117 
L 163.623857 285.619983 
L 187.593937 297.94355 
L 215.049286 306.798772 
L 244.01287 311.753001 
L 272.368613 312.650298 
L 298.062871 309.625001 
L 319.295194 303.079935 
L 334.668618 293.634415 
L 343.280846 282.053065 
L 344.752369 269.168779 
L 339.20054 255.811577 
L 327.176385 242.751138 
L 309.582589 230.656049 
L 287.588073 220.068918 
L 262.549038 211.394048 
L 235.940541 204.893592 
L 209.29772 200.688394 
L 184.162425 198.760877 
L 162.029262 198.958788 
L 144.284994 201.00017 
L 132.136833 204.48139 
L 126.52858 208.891131 
L 128.048739 213.633689 
L 136.84109 218.064324 
L 152.534379 221.537455 
L 174.211389 223.465233 
L 200.436079 223.380152 
L 229.349062 220.991965 
L 258.827295 216.228038 
L 286.687423 209.248305 
L 310.899903 200.431063 
L 329.777787 190.332439 
L 342.111366 179.62798 
" style="fill:none;stroke:#000000;stroke-linecap:square;stroke-width:0.8;"/>
   </g>
   <g id="line2d_29">
    <path clip-path="url(#p024a15aebe)" d="M 236.326445 218.747361 
L 238.977097 210.542106 
L 241.633529 207.363899 
L 244.294359 205.011996 
L 246.959119 203.087563 
L 249.627542 201.436161 
L 252.299451 199.978609 
L 254.974716 198.667883 
L 257.65324 197.473354 
L 260.334941 196.373752 
L 263.019757 195.353595 
L 265.707632 194.4012 
L 268.398522 193.507493 
L 271.092386 192.665257 
L 273.78919 191.868647 
L 276.488903 191.112843 
L 279.191499 190.39382 
L 281.896954 189.708174 
L 284.605247 189.052997 
L 287.316357 188.425778 
L 290.030267 187.824336 
L 292.746962 187.246758 
L 295.466426 186.691359 
L 298.188646 186.156641 
L 300.913611 185.64127 
L 303.641308 185.144049 
L 306.371727 184.663901 
L 309.10486 184.19985 
L 311.840696 183.751012 
L 314.579228 183.316579 
L 317.320447 182.895815 
L 320.064348 182.488043 
L 322.810923 182.092641 
L 325.560166 181.709037 
L 328.312072 181.3367 
L 331.066635 180.975138 
L 333.82385 180.623896 
L 336.583713 180.282549 
L 339.34622 179.9507 
L 342.111366 179.62798 
" style="fill:none;stroke:#ff0000;stroke-linecap:square;stroke-width:2;"/>
   </g>
   <g id="line2d_30">
    <path clip-path="url(#p024a15aebe)" d="M 236.326445 218.747361 
L 238.968442 227.716464 
L 241.60852 231.659056 
L 244.248067 234.77588 
L 246.887553 237.465772 
L 249.527251 239.88317 
L 252.167342 242.107257 
L 254.807959 244.185057 
L 257.449206 246.1472 
L 260.091166 248.014955 
L 262.733908 249.803806 
L 265.37749 251.525437 
L 268.021963 253.188922 
L 270.66737 254.801477 
L 273.313751 256.368951 
L 275.961139 257.896161 
L 278.609567 259.387134 
L 281.259062 260.845275 
L 283.90965 262.273494 
L 286.561356 263.674299 
L 289.2142 265.049874 
L 291.868204 266.402132 
L 294.523387 267.73276 
L 297.179765 269.043254 
L 299.837357 270.334949 
L 302.496177 271.609045 
L 305.156241 272.866617 
L 307.817561 274.108643 
L 310.480153 275.336008 
L 313.144028 276.549519 
L 315.809198 277.749913 
L 318.475675 278.937868 
L 321.14347 280.114007 
L 323.812594 281.278902 
L 326.483056 282.433085 
L 329.154867 283.577048 
L 331.828036 284.711247 
L 334.502571 285.836108 
L 337.178482 286.952028 
L 339.855778 288.059376 
" style="fill:none;stroke:#ff0000;stroke-linecap:square;stroke-width:2;"/>
   </g>
   <g id="Poly3DCollection_1">
    <path clip-path="url(#p024a15aebe)" d="M 256.201024 217.210301 
L 236.033983 211.680001 
L 235.940541 204.893592 
L 262.549038 211.394048 
z
" style="fill:#ff8e4a;fill-opacity:0.65;"/>
    <path clip-path="url(#p024a15aebe)" d="M 236.033983 211.680001 
L 215.846826 207.84623 
L 209.29772 200.688394 
L 235.940541 204.893592 
z
" style="fill:#ffae5e;fill-opacity:0.65;"/>
    <path clip-path="url(#p024a15aebe)" d="M 275.147584 224.328873 
L 256.201024 217.210301 
L 262.549038 211.394048 
L 287.588073 220.068918 
z
" style="fill:#ff6d38;fill-opacity:0.65;"/>
    <path clip-path="url(#p024a15aebe)" d="M 215.846826 207.84623 
L 196.844418 205.7055 
L 184.162425 198.760877 
L 209.29772 200.688394 
z
" style="fill:#e6cd73;fill-opacity:0.65;"/>
    <path clip-path="url(#p024a15aebe)" d="M 291.72851 232.814961 
L 275.147584 224.328873 
L 287.588073 220.068918 
L 309.582589 230.656049 
z
" style="fill:#ff4d27;fill-opacity:0.65;"/>
    <path clip-path="url(#p024a15aebe)" d="M 196.844418 205.7055 
L 180.184921 205.145887 
L 162.029262 198.958788 
L 184.162425 198.760877 
z
" style="fill:#c8e688;fill-opacity:0.65;"/>
    <path clip-path="url(#p024a15aebe)" d="M 304.906696 242.337898 
L 291.72851 232.814961 
L 309.582589 230.656049 
L 327.176385 242.751138 
z
" style="fill:#ff3219;fill-opacity:0.65;"/>
    <path clip-path="url(#p024a15aebe)" d="M 249.719909 222.274266 
L 236.129408 217.867138 
L 236.033983 211.680001 
L 256.201024 217.210301 
z
" style="fill:#ffac5c;fill-opacity:0.65;"/>
    <path clip-path="url(#p024a15aebe)" d="M 246.305138 157.698972 
L 225.768787 162.540167 
L 222.378507 148.643041 
L 249.511372 143.08401 
z
" style="fill:#139df1;fill-opacity:0.65;"/>
    <path clip-path="url(#p024a15aebe)" d="M 225.768787 162.540167 
L 205.902931 169.805507 
L 196.113454 157.304463 
L 222.378507 148.643041 
z
" style="fill:#09bee9;fill-opacity:0.65;"/>
    <path clip-path="url(#p024a15aebe)" d="M 262.467272 227.679986 
L 249.719909 222.274266 
L 256.201024 217.210301 
L 275.147584 224.328873 
z
" style="fill:#ff934d;fill-opacity:0.65;"/>
    <path clip-path="url(#p024a15aebe)" d="M 236.129408 217.867138 
L 222.530143 214.547737 
L 215.846826 207.84623 
L 236.033983 211.680001 
z
" style="fill:#eec66d;fill-opacity:0.65;"/>
    <path clip-path="url(#p024a15aebe)" d="M 266.281833 155.342398 
L 246.305138 157.698972 
L 249.511372 143.08401 
L 275.93608 140.688829 
z
" style="fill:#2e7bf7;fill-opacity:0.65;"/>
    <path clip-path="url(#p024a15aebe)" d="M 205.902931 169.805507 
L 187.905133 179.320274 
L 172.255699 168.868908 
L 196.113454 157.304463 
z
" style="fill:#26dade;fill-opacity:0.65;"/>
    <path clip-path="url(#p024a15aebe)" d="M 273.581127 233.916311 
L 262.467272 227.679986 
L 275.147584 224.328873 
L 291.72851 232.814961 
z
" style="fill:#ff7b40;fill-opacity:0.65;"/>
    <path clip-path="url(#p024a15aebe)" d="M 222.530143 214.547737 
L 209.758954 212.325671 
L 196.844418 205.7055 
L 215.846826 207.84623 
z
" style="fill:#d7db7e;fill-opacity:0.65;"/>
    <path clip-path="url(#p024a15aebe)" d="M 180.184921 205.145887 
L 166.925458 205.953054 
L 144.284994 201.00017 
L 162.029262 198.958788 
z
" style="fill:#a8f79c;fill-opacity:0.65;"/>
    <path clip-path="url(#p024a15aebe)" d="M 313.809501 252.464568 
L 304.906696 242.337898 
L 327.176385 242.751138 
L 339.20054 255.811577 
z
" style="fill:#ff1c0e;fill-opacity:0.65;"/>
    <path clip-path="url(#p024a15aebe)" d="M 284.489021 155.418591 
L 266.281833 155.342398 
L 275.93608 140.688829 
L 300.096012 141.384374 
z
" style="fill:#435cfb;fill-opacity:0.65;"/>
    <path clip-path="url(#p024a15aebe)" d="M 187.905133 179.320274 
L 172.886608 190.79517 
L 152.24975 182.995156 
L 172.255699 168.868908 
z
" style="fill:#46efd1;fill-opacity:0.65;"/>
    <path clip-path="url(#p024a15aebe)" d="M 282.356532 240.740586 
L 273.581127 233.916311 
L 291.72851 232.814961 
L 304.906696 242.337898 
z
" style="fill:#ff6835;fill-opacity:0.65;"/>
    <path clip-path="url(#p024a15aebe)" d="M 209.758954 212.325671 
L 198.613268 211.133472 
L 180.184921 205.145887 
L 196.844418 205.7055 
z
" style="fill:#bced8f;fill-opacity:0.65;"/>
    <path clip-path="url(#p024a15aebe)" d="M 229.223266 177.384105 
L 215.867292 183.063697 
L 205.902931 169.805507 
L 225.768787 162.540167 
z
" style="fill:#1bcfe3;fill-opacity:0.65;"/>
    <path clip-path="url(#p024a15aebe)" d="M 243.038879 173.411005 
L 229.223266 177.384105 
L 225.768787 162.540167 
L 246.305138 157.698972 
z
" style="fill:#04b9ea;fill-opacity:0.65;"/>
    <path clip-path="url(#p024a15aebe)" d="M 215.867292 183.063697 
L 203.798682 190.310311 
L 187.905133 179.320274 
L 205.902931 169.805507 
z
" style="fill:#34e4d9;fill-opacity:0.65;"/>
    <path clip-path="url(#p024a15aebe)" d="M 243.098987 225.738566 
L 236.226895 222.734887 
L 236.129408 217.867138 
L 249.719909 222.274266 
z
" style="fill:#e6cd73;fill-opacity:0.65;"/>
    <path clip-path="url(#p024a15aebe)" d="M 256.461106 171.199691 
L 243.038879 173.411005 
L 246.305138 157.698972 
L 266.281833 155.342398 
z
" style="fill:#11a0f1;fill-opacity:0.65;"/>
    <path clip-path="url(#p024a15aebe)" d="M 249.534686 229.162038 
L 243.098987 225.738566 
L 249.719909 222.274266 
L 262.467272 227.679986 
z
" style="fill:#f7be68;fill-opacity:0.65;"/>
    <path clip-path="url(#p024a15aebe)" d="M 236.226895 222.734887 
L 229.353574 220.211734 
L 222.530143 214.547737 
L 236.129408 217.867138 
z
" style="fill:#d5dd7f;fill-opacity:0.65;"/>
    <path clip-path="url(#p024a15aebe)" d="M 288.214947 247.843786 
L 282.356532 240.740586 
L 304.906696 242.337898 
L 313.809501 252.464568 
z
" style="fill:#ff562c;fill-opacity:0.65;"/>
    <path clip-path="url(#p024a15aebe)" d="M 172.886608 190.79517 
L 161.815548 203.828893 
L 137.378777 199.197782 
L 152.24975 182.995156 
z
" style="fill:#66fcc2;fill-opacity:0.65;"/>
    <path clip-path="url(#p024a15aebe)" d="M 299.79183 157.766441 
L 284.489021 155.418591 
L 300.096012 141.384374 
L 320.513346 144.965142 
z
" style="fill:#573efd;fill-opacity:0.65;"/>
    <path clip-path="url(#p024a15aebe)" d="M 255.124619 232.904091 
L 249.534686 229.162038 
L 262.467272 227.679986 
L 273.581127 233.916311 
z
" style="fill:#ffae5e;fill-opacity:0.65;"/>
    <path clip-path="url(#p024a15aebe)" d="M 198.613268 211.133472 
L 189.808699 210.83214 
L 166.925458 205.953054 
L 180.184921 205.145887 
z
" style="fill:#a2f9a0;fill-opacity:0.65;"/>
    <path clip-path="url(#p024a15aebe)" d="M 229.353574 220.211734 
L 222.914989 218.188209 
L 209.758954 212.325671 
L 222.530143 214.547737 
z
" style="fill:#c2ea8c;fill-opacity:0.65;"/>
    <path clip-path="url(#p024a15aebe)" d="M 203.798682 190.310311 
L 193.777006 198.902163 
L 172.886608 190.79517 
L 187.905133 179.320274 
z
" style="fill:#4ef3cd;fill-opacity:0.65;"/>
    <path clip-path="url(#p024a15aebe)" d="M 268.654739 170.721977 
L 256.461106 171.199691 
L 266.281833 155.342398 
L 284.489021 155.418591 
z
" style="fill:#2586f5;fill-opacity:0.65;"/>
    <path clip-path="url(#p024a15aebe)" d="M 317.788006 262.673788 
L 313.809501 252.464568 
L 339.20054 255.811577 
L 344.752369 269.168779 
z
" style="fill:#ff0d06;fill-opacity:0.65;"/>
    <path clip-path="url(#p024a15aebe)" d="M 259.509236 236.826607 
L 255.124619 232.904091 
L 273.581127 233.916311 
L 282.356532 240.740586 
z
" style="fill:#ffa055;fill-opacity:0.65;"/>
    <path clip-path="url(#p024a15aebe)" d="M 166.925458 205.953054 
L 157.963169 207.819905 
L 132.136833 204.48139 
L 144.284994 201.00017 
z
" style="fill:#86ffb0;fill-opacity:0.65;"/>
    <path clip-path="url(#p024a15aebe)" d="M 222.914989 218.188209 
L 217.322787 216.642951 
L 198.613268 211.133472 
L 209.758954 212.325671 
z
" style="fill:#aef498;fill-opacity:0.65;"/>
    <path clip-path="url(#p024a15aebe)" d="M 193.777006 198.902163 
L 186.45121 208.540224 
L 161.815548 203.828893 
L 172.886608 190.79517 
z
" style="fill:#6bfdc0;fill-opacity:0.65;"/>
    <path clip-path="url(#p024a15aebe)" d="M 290.743339 254.863671 
L 288.214947 247.843786 
L 313.809501 252.464568 
L 317.788006 262.673788 
z
" style="fill:#ff4724;fill-opacity:0.65;"/>
    <path clip-path="url(#p024a15aebe)" d="M 262.400979 240.760577 
L 259.509236 236.826607 
L 282.356532 240.740586 
L 288.214947 247.843786 
z
" style="fill:#ff964f;fill-opacity:0.65;"/>
    <path clip-path="url(#p024a15aebe)" d="M 232.742783 193.839574 
L 226.008997 197.597636 
L 215.867292 183.063697 
L 229.223266 177.384105 
z
" style="fill:#32e3da;fill-opacity:0.65;"/>
    <path clip-path="url(#p024a15aebe)" d="M 239.712063 191.018342 
L 232.742783 193.839574 
L 229.223266 177.384105 
L 243.038879 173.411005 
z
" style="fill:#20d5e1;fill-opacity:0.65;"/>
    <path clip-path="url(#p024a15aebe)" d="M 278.845934 171.869224 
L 268.654739 170.721977 
L 284.489021 155.418591 
L 299.79183 157.766441 
z
" style="fill:#3570f8;fill-opacity:0.65;"/>
    <path clip-path="url(#p024a15aebe)" d="M 226.008997 197.597636 
L 219.939565 202.202375 
L 203.798682 190.310311 
L 215.867292 183.063697 
z
" style="fill:#46efd1;fill-opacity:0.65;"/>
    <path clip-path="url(#p024a15aebe)" d="M 217.322787 216.642951 
L 212.939863 215.517553 
L 189.808699 210.83214 
L 198.613268 211.133472 
z
" style="fill:#9bfba5;fill-opacity:0.65;"/>
    <path clip-path="url(#p024a15aebe)" d="M 246.473561 189.177122 
L 239.712063 191.018342 
L 243.038879 173.411005 
L 256.461106 171.199691 
z
" style="fill:#10c6e6;fill-opacity:0.65;"/>
    <path clip-path="url(#p024a15aebe)" d="M 189.808699 210.83214 
L 183.936488 211.220051 
L 157.963169 207.819905 
L 166.925458 205.953054 
z
" style="fill:#86ffb0;fill-opacity:0.65;"/>
    <path clip-path="url(#p024a15aebe)" d="M 161.815548 203.828893 
L 155.457314 217.915807 
L 128.687884 216.850054 
L 137.378777 199.197782 
z
" style="fill:#86ffb0;fill-opacity:0.65;"/>
    <path clip-path="url(#p024a15aebe)" d="M 311.18898 162.120474 
L 299.79183 157.766441 
L 320.513346 144.965142 
L 335.857586 151.095487 
z
" style="fill:#6726fe;fill-opacity:0.65;"/>
    <path clip-path="url(#p024a15aebe)" d="M 219.939565 202.202375 
L 214.923783 207.51896 
L 193.777006 198.902163 
L 203.798682 190.310311 
z
" style="fill:#5bf8c8;fill-opacity:0.65;"/>
    <path clip-path="url(#p024a15aebe)" d="M 263.603432 244.514551 
L 262.400979 240.760577 
L 288.214947 247.843786 
L 290.743339 254.863671 
z
" style="fill:#ff8c49;fill-opacity:0.65;"/>
    <path clip-path="url(#p024a15aebe)" d="M 252.595333 188.311967 
L 246.473561 189.177122 
L 256.461106 171.199691 
L 268.654739 170.721977 
z
" style="fill:#00b5eb;fill-opacity:0.65;"/>
    <path clip-path="url(#p024a15aebe)" d="M 186.45121 208.540224 
L 182.318528 218.85737 
L 155.457314 217.915807 
L 161.815548 203.828893 
z
" style="fill:#86ffb0;fill-opacity:0.65;"/>
    <path clip-path="url(#p024a15aebe)" d="M 214.923783 207.51896 
L 211.287763 213.372461 
L 186.45121 208.540224 
L 193.777006 198.902163 
z
" style="fill:#6efebe;fill-opacity:0.65;"/>
    <path clip-path="url(#p024a15aebe)" d="M 236.326445 218.747361 
L 236.326445 218.747361 
L 236.226895 222.734887 
L 243.098987 225.738566 
z
" style="fill:#abf69b;fill-opacity:0.65;"/>
    <path clip-path="url(#p024a15aebe)" d="M 236.326445 218.747361 
L 236.326445 218.747361 
L 243.098987 225.738566 
L 249.534686 229.162038 
z
" style="fill:#b0f397;fill-opacity:0.65;"/>
    <path clip-path="url(#p024a15aebe)" d="M 316.475397 272.379568 
L 317.788006 262.673788 
L 344.752369 269.168779 
L 343.280846 282.053065 
z
" style="fill:#ff0302;fill-opacity:0.65;"/>
    <path clip-path="url(#p024a15aebe)" d="M 236.326445 218.747361 
L 236.326445 218.747361 
L 229.353574 220.211734 
L 236.226895 222.734887 
z
" style="fill:#a2f9a0;fill-opacity:0.65;"/>
    <path clip-path="url(#p024a15aebe)" d="M 212.939863 215.517553 
L 210.057589 214.722132 
L 183.936488 211.220051 
L 189.808699 210.83214 
z
" style="fill:#84ffb2;fill-opacity:0.65;"/>
    <path clip-path="url(#p024a15aebe)" d="M 236.326445 218.747361 
L 236.326445 218.747361 
L 249.534686 229.162038 
L 255.124619 232.904091 
z
" style="fill:#b7f193;fill-opacity:0.65;"/>
    <path clip-path="url(#p024a15aebe)" d="M 289.728738 261.403251 
L 290.743339 254.863671 
L 317.788006 262.673788 
L 316.475397 272.379568 
z
" style="fill:#ff3e1f;fill-opacity:0.65;"/>
    <path clip-path="url(#p024a15aebe)" d="M 286.366066 174.457905 
L 278.845934 171.869224 
L 299.79183 157.766441 
L 311.18898 162.120474 
z
" style="fill:#435cfb;fill-opacity:0.65;"/>
    <path clip-path="url(#p024a15aebe)" d="M 236.326445 218.747361 
L 236.326445 218.747361 
L 222.914989 218.188209 
L 229.353574 220.211734 
z
" style="fill:#9bfba5;fill-opacity:0.65;"/>
    <path clip-path="url(#p024a15aebe)" d="M 257.682243 188.373728 
L 252.595333 188.311967 
L 268.654739 170.721977 
L 278.845934 171.869224 
z
" style="fill:#0ca7ef;fill-opacity:0.65;"/>
    <path clip-path="url(#p024a15aebe)" d="M 236.326445 218.747361 
L 236.326445 218.747361 
L 255.124619 232.904091 
L 259.509236 236.826607 
z
" style="fill:#bbee91;fill-opacity:0.65;"/>
    <path clip-path="url(#p024a15aebe)" d="M 263.026136 247.88531 
L 263.603432 244.514551 
L 290.743339 254.863671 
L 289.728738 261.403251 
z
" style="fill:#ff8646;fill-opacity:0.65;"/>
    <path clip-path="url(#p024a15aebe)" d="M 236.326445 218.747361 
L 236.326445 218.747361 
L 217.322787 216.642951 
L 222.914989 218.188209 
z
" style="fill:#92fda9;fill-opacity:0.65;"/>
    <path clip-path="url(#p024a15aebe)" d="M 157.963169 207.819905 
L 153.972431 210.361346 
L 126.52858 208.891131 
L 132.136833 204.48139 
z
" style="fill:#66fcc2;fill-opacity:0.65;"/>
    <path clip-path="url(#p024a15aebe)" d="M 236.326445 218.747361 
L 236.326445 218.747361 
L 259.509236 236.826607 
L 262.400979 240.760577 
z
" style="fill:#beec8e;fill-opacity:0.65;"/>
    <path clip-path="url(#p024a15aebe)" d="M 211.287763 213.372461 
L 209.273417 219.554769 
L 182.318528 218.85737 
L 186.45121 208.540224 
z
" style="fill:#84ffb2;fill-opacity:0.65;"/>
    <path clip-path="url(#p024a15aebe)" d="M 236.326445 218.747361 
L 236.326445 218.747361 
L 226.008997 197.597636 
L 232.742783 193.839574 
z
" style="fill:#5efac6;fill-opacity:0.65;"/>
    <path clip-path="url(#p024a15aebe)" d="M 236.326445 218.747361 
L 236.326445 218.747361 
L 212.939863 215.517553 
L 217.322787 216.642951 
z
" style="fill:#8bfeae;fill-opacity:0.65;"/>
    <path clip-path="url(#p024a15aebe)" d="M 236.326445 218.747361 
L 236.326445 218.747361 
L 232.742783 193.839574 
L 239.712063 191.018342 
z
" style="fill:#59f8c9;fill-opacity:0.65;"/>
    <path clip-path="url(#p024a15aebe)" d="M 236.326445 218.747361 
L 236.326445 218.747361 
L 219.939565 202.202375 
L 226.008997 197.597636 
z
" style="fill:#69fcc1;fill-opacity:0.65;"/>
    <path clip-path="url(#p024a15aebe)" d="M 236.326445 218.747361 
L 236.326445 218.747361 
L 262.400979 240.760577 
L 263.603432 244.514551 
z
" style="fill:#c2ea8c;fill-opacity:0.65;"/>
    <path clip-path="url(#p024a15aebe)" d="M 183.936488 211.220051 
L 181.422341 212.045615 
L 153.972431 210.361346 
L 157.963169 207.819905 
z
" style="fill:#6bfdc0;fill-opacity:0.65;"/>
    <path clip-path="url(#p024a15aebe)" d="M 236.326445 218.747361 
L 236.326445 218.747361 
L 239.712063 191.018342 
L 246.473561 189.177122 
z
" style="fill:#50f4cc;fill-opacity:0.65;"/>
    <path clip-path="url(#p024a15aebe)" d="M 236.326445 218.747361 
L 236.326445 218.747361 
L 214.923783 207.51896 
L 219.939565 202.202375 
z
" style="fill:#70febc;fill-opacity:0.65;"/>
    <path clip-path="url(#p024a15aebe)" d="M 155.457314 217.915807 
L 154.314014 232.461214 
L 126.899024 235.196722 
L 128.687884 216.850054 
z
" style="fill:#a8f79c;fill-opacity:0.65;"/>
    <path clip-path="url(#p024a15aebe)" d="M 236.326445 218.747361 
L 236.326445 218.747361 
L 246.473561 189.177122 
L 252.595333 188.311967 
z
" style="fill:#4bf2cf;fill-opacity:0.65;"/>
    <path clip-path="url(#p024a15aebe)" d="M 236.326445 218.747361 
L 236.326445 218.747361 
L 211.287763 213.372461 
L 214.923783 207.51896 
z
" style="fill:#79ffb8;fill-opacity:0.65;"/>
    <path clip-path="url(#p024a15aebe)" d="M 261.400224 189.272005 
L 257.682243 188.373728 
L 278.845934 171.869224 
L 286.366066 174.457905 
z
" style="fill:#159bf2;fill-opacity:0.65;"/>
    <path clip-path="url(#p024a15aebe)" d="M 236.326445 218.747361 
L 236.326445 218.747361 
L 263.603432 244.514551 
L 263.026136 247.88531 
z
" style="fill:#c2ea8c;fill-opacity:0.65;"/>
    <path clip-path="url(#p024a15aebe)" d="M 236.326445 218.747361 
L 236.326445 218.747361 
L 210.057589 214.722132 
L 212.939863 215.517553 
z
" style="fill:#80ffb4;fill-opacity:0.65;"/>
    <path clip-path="url(#p024a15aebe)" d="M 182.318528 218.85737 
L 181.68698 229.432538 
L 154.314014 232.461214 
L 155.457314 217.915807 
z
" style="fill:#a2f9a0;fill-opacity:0.65;"/>
    <path clip-path="url(#p024a15aebe)" d="M 210.057589 214.722132 
L 208.875911 214.142927 
L 181.422341 212.045615 
L 183.936488 211.220051 
z
" style="fill:#6efebe;fill-opacity:0.65;"/>
    <path clip-path="url(#p024a15aebe)" d="M 236.326445 218.747361 
L 236.326445 218.747361 
L 209.273417 219.554769 
L 211.287763 213.372461 
z
" style="fill:#80ffb4;fill-opacity:0.65;"/>
    <path clip-path="url(#p024a15aebe)" d="M 209.273417 219.554769 
L 209.021341 225.833882 
L 181.68698 229.432538 
L 182.318528 218.85737 
z
" style="fill:#9bfba5;fill-opacity:0.65;"/>
    <path clip-path="url(#p024a15aebe)" d="M 236.326445 218.747361 
L 236.326445 218.747361 
L 252.595333 188.311967 
L 257.682243 188.373728 
z
" style="fill:#46efd1;fill-opacity:0.65;"/>
    <path clip-path="url(#p024a15aebe)" d="M 260.6936 250.670331 
L 263.026136 247.88531 
L 289.728738 261.403251 
L 285.18432 267.054537 
z
" style="fill:#ff8646;fill-opacity:0.65;"/>
    <path clip-path="url(#p024a15aebe)" d="M 236.326445 218.747361 
L 236.326445 218.747361 
L 263.026136 247.88531 
L 260.6936 250.670331 
z
" style="fill:#c4e88a;fill-opacity:0.65;"/>
    <path clip-path="url(#p024a15aebe)" d="M 317.875652 168.119028 
L 311.18898 162.120474 
L 335.857586 151.095487 
L 345.026048 159.314546 
z
" style="fill:#7313ff;fill-opacity:0.65;"/>
    <path clip-path="url(#p024a15aebe)" d="M 236.326445 218.747361 
L 236.326445 218.747361 
L 209.021341 225.833882 
L 209.273417 219.554769 
z
" style="fill:#8bfeae;fill-opacity:0.65;"/>
    <path clip-path="url(#p024a15aebe)" d="M 236.326445 218.747361 
L 236.326445 218.747361 
L 208.875911 214.142927 
L 210.057589 214.722132 
z
" style="fill:#79ffb8;fill-opacity:0.65;"/>
    <path clip-path="url(#p024a15aebe)" d="M 236.326445 218.747361 
L 236.326445 218.747361 
L 257.682243 188.373728 
L 261.400224 189.272005 
z
" style="fill:#40ecd4;fill-opacity:0.65;"/>
    <path clip-path="url(#p024a15aebe)" d="M 236.326445 218.747361 
L 236.326445 218.747361 
L 260.6936 250.670331 
L 256.747147 252.68136 
z
" style="fill:#c2ea8c;fill-opacity:0.65;"/>
    <path clip-path="url(#p024a15aebe)" d="M 236.326445 218.747361 
L 236.326445 218.747361 
L 210.559054 231.965351 
L 209.021341 225.833882 
z
" style="fill:#92fda9;fill-opacity:0.65;"/>
    <path clip-path="url(#p024a15aebe)" d="M 285.18432 267.054537 
L 289.728738 261.403251 
L 316.475397 272.379568 
L 309.83759 280.964426 
z
" style="fill:#ff3e1f;fill-opacity:0.65;"/>
    <path clip-path="url(#p024a15aebe)" d="M 290.694863 178.238243 
L 286.366066 174.457905 
L 311.18898 162.120474 
L 317.875652 168.119028 
z
" style="fill:#4e4dfc;fill-opacity:0.65;"/>
    <path clip-path="url(#p024a15aebe)" d="M 236.326445 218.747361 
L 236.326445 218.747361 
L 261.400224 189.272005 
L 263.498182 190.881115 
z
" style="fill:#3febd5;fill-opacity:0.65;"/>
    <path clip-path="url(#p024a15aebe)" d="M 236.326445 218.747361 
L 236.326445 218.747361 
L 209.487761 213.65165 
L 208.875911 214.142927 
z
" style="fill:#70febc;fill-opacity:0.65;"/>
    <path clip-path="url(#p024a15aebe)" d="M 236.326445 218.747361 
L 236.326445 218.747361 
L 213.796005 237.705442 
L 210.559054 231.965351 
z
" style="fill:#9bfba5;fill-opacity:0.65;"/>
    <path clip-path="url(#p024a15aebe)" d="M 236.326445 218.747361 
L 236.326445 218.747361 
L 256.747147 252.68136 
L 251.438566 253.75808 
z
" style="fill:#c2ea8c;fill-opacity:0.65;"/>
    <path clip-path="url(#p024a15aebe)" d="M 209.021341 225.833882 
L 210.559054 231.965351 
L 184.644979 239.810457 
L 181.68698 229.432538 
z
" style="fill:#aef498;fill-opacity:0.65;"/>
    <path clip-path="url(#p024a15aebe)" d="M 263.498182 190.881115 
L 261.400224 189.272005 
L 286.366066 174.457905 
L 290.694863 178.238243 
z
" style="fill:#1e91f3;fill-opacity:0.65;"/>
    <path clip-path="url(#p024a15aebe)" d="M 236.326445 218.747361 
L 236.326445 218.747361 
L 218.526559 242.825249 
L 213.796005 237.705442 
z
" style="fill:#a2f9a0;fill-opacity:0.65;"/>
    <path clip-path="url(#p024a15aebe)" d="M 236.326445 218.747361 
L 236.326445 218.747361 
L 251.438566 253.75808 
L 245.115242 253.780708 
z
" style="fill:#beec8e;fill-opacity:0.65;"/>
    <path clip-path="url(#p024a15aebe)" d="M 309.83759 280.964426 
L 316.475397 272.379568 
L 343.280846 282.053065 
L 334.668618 293.634415 
z
" style="fill:#ff0000;fill-opacity:0.65;"/>
    <path clip-path="url(#p024a15aebe)" d="M 256.747147 252.68136 
L 260.6936 250.670331 
L 285.18432 267.054537 
L 277.362361 271.4266 
z
" style="fill:#ff8646;fill-opacity:0.65;"/>
    <path clip-path="url(#p024a15aebe)" d="M 236.326445 218.747361 
L 236.326445 218.747361 
L 263.498182 190.881115 
L 263.826169 193.047997 
z
" style="fill:#3dead5;fill-opacity:0.65;"/>
    <path clip-path="url(#p024a15aebe)" d="M 236.326445 218.747361 
L 236.326445 218.747361 
L 224.441547 247.124717 
L 218.526559 242.825249 
z
" style="fill:#abf69b;fill-opacity:0.65;"/>
    <path clip-path="url(#p024a15aebe)" d="M 236.326445 218.747361 
L 236.326445 218.747361 
L 211.869352 213.11621 
L 209.487761 213.65165 
z
" style="fill:#69fcc1;fill-opacity:0.65;"/>
    <path clip-path="url(#p024a15aebe)" d="M 236.326445 218.747361 
L 236.326445 218.747361 
L 245.115242 253.780708 
L 238.197286 252.680255 
z
" style="fill:#bbee91;fill-opacity:0.65;"/>
    <path clip-path="url(#p024a15aebe)" d="M 208.875911 214.142927 
L 209.487761 213.65165 
L 182.489534 213.023976 
L 181.422341 212.045615 
z
" style="fill:#5bf8c8;fill-opacity:0.65;"/>
    <path clip-path="url(#p024a15aebe)" d="M 236.326445 218.747361 
L 236.326445 218.747361 
L 231.148203 250.445337 
L 224.441547 247.124717 
z
" style="fill:#b0f397;fill-opacity:0.65;"/>
    <path clip-path="url(#p024a15aebe)" d="M 236.326445 218.747361 
L 236.326445 218.747361 
L 238.197286 252.680255 
L 231.148203 250.445337 
z
" style="fill:#b7f193;fill-opacity:0.65;"/>
    <path clip-path="url(#p024a15aebe)" d="M 181.68698 229.432538 
L 184.644979 239.810457 
L 158.569196 246.806419 
L 154.314014 232.461214 
z
" style="fill:#bced8f;fill-opacity:0.65;"/>
    <path clip-path="url(#p024a15aebe)" d="M 236.326445 218.747361 
L 236.326445 218.747361 
L 263.826169 193.047997 
L 262.348264 195.601877 
z
" style="fill:#3be8d6;fill-opacity:0.65;"/>
    <path clip-path="url(#p024a15aebe)" d="M 236.326445 218.747361 
L 236.326445 218.747361 
L 215.877877 212.412159 
L 211.869352 213.11621 
z
" style="fill:#5efac6;fill-opacity:0.65;"/>
    <path clip-path="url(#p024a15aebe)" d="M 181.422341 212.045615 
L 182.489534 213.023976 
L 155.342183 213.135681 
L 153.972431 210.361346 
z
" style="fill:#4ef3cd;fill-opacity:0.65;"/>
    <path clip-path="url(#p024a15aebe)" d="M 210.559054 231.965351 
L 213.796005 237.705442 
L 191.042504 249.526789 
L 184.644979 239.810457 
z
" style="fill:#c2ea8c;fill-opacity:0.65;"/>
    <path clip-path="url(#p024a15aebe)" d="M 236.326445 218.747361 
L 236.326445 218.747361 
L 262.348264 195.601877 
L 259.148574 198.365336 
z
" style="fill:#3be8d6;fill-opacity:0.65;"/>
    <path clip-path="url(#p024a15aebe)" d="M 154.314014 232.461214 
L 158.569196 246.806419 
L 132.32522 253.381325 
L 126.899024 235.196722 
z
" style="fill:#c8e688;fill-opacity:0.65;"/>
    <path clip-path="url(#p024a15aebe)" d="M 236.326445 218.747361 
L 236.326445 218.747361 
L 221.257714 211.43406 
L 215.877877 212.412159 
z
" style="fill:#59f8c9;fill-opacity:0.65;"/>
    <path clip-path="url(#p024a15aebe)" d="M 251.438566 253.75808 
L 256.747147 252.68136 
L 277.362361 271.4266 
L 266.749649 274.175946 
z
" style="fill:#ff8c49;fill-opacity:0.65;"/>
    <path clip-path="url(#p024a15aebe)" d="M 263.826169 193.047997 
L 263.498182 190.881115 
L 290.694863 178.238243 
L 291.500507 182.906578 
z
" style="fill:#2389f5;fill-opacity:0.65;"/>
    <path clip-path="url(#p024a15aebe)" d="M 153.972431 210.361346 
L 155.342183 213.135681 
L 128.048739 213.633689 
L 126.52858 208.891131 
z
" style="fill:#46efd1;fill-opacity:0.65;"/>
    <path clip-path="url(#p024a15aebe)" d="M 236.326445 218.747361 
L 236.326445 218.747361 
L 259.148574 198.365336 
L 254.429049 201.166161 
z
" style="fill:#3dead5;fill-opacity:0.65;"/>
    <path clip-path="url(#p024a15aebe)" d="M 277.362361 271.4266 
L 285.18432 267.054537 
L 309.83759 280.964426 
L 298.206638 287.82226 
z
" style="fill:#ff3e1f;fill-opacity:0.65;"/>
    <path clip-path="url(#p024a15aebe)" d="M 236.326445 218.747361 
L 236.326445 218.747361 
L 227.655575 210.105775 
L 221.257714 211.43406 
z
" style="fill:#50f4cc;fill-opacity:0.65;"/>
    <path clip-path="url(#p024a15aebe)" d="M 236.326445 218.747361 
L 236.326445 218.747361 
L 254.429049 201.166161 
L 248.498337 203.849163 
z
" style="fill:#3febd5;fill-opacity:0.65;"/>
    <path clip-path="url(#p024a15aebe)" d="M 213.796005 237.705442 
L 218.526559 242.825249 
L 200.48848 258.137512 
L 191.042504 249.526789 
z
" style="fill:#d5dd7f;fill-opacity:0.65;"/>
    <path clip-path="url(#p024a15aebe)" d="M 236.326445 218.747361 
L 236.326445 218.747361 
L 234.644033 208.388689 
L 227.655575 210.105775 
z
" style="fill:#4bf2cf;fill-opacity:0.65;"/>
    <path clip-path="url(#p024a15aebe)" d="M 236.326445 218.747361 
L 236.326445 218.747361 
L 248.498337 203.849163 
L 241.751826 206.286958 
z
" style="fill:#40ecd4;fill-opacity:0.65;"/>
    <path clip-path="url(#p024a15aebe)" d="M 291.500507 182.906578 
L 290.694863 178.238243 
L 317.875652 168.119028 
L 319.308134 175.31772 
z
" style="fill:#5541fd;fill-opacity:0.65;"/>
    <path clip-path="url(#p024a15aebe)" d="M 236.326445 218.747361 
L 236.326445 218.747361 
L 241.751826 206.286958 
L 234.644033 208.388689 
z
" style="fill:#46efd1;fill-opacity:0.65;"/>
    <path clip-path="url(#p024a15aebe)" d="M 209.487761 213.65165 
L 211.869352 213.11621 
L 187.130566 213.857627 
L 182.489534 213.023976 
z
" style="fill:#46efd1;fill-opacity:0.65;"/>
    <path clip-path="url(#p024a15aebe)" d="M 245.115242 253.780708 
L 251.438566 253.75808 
L 266.749649 274.175946 
L 254.042335 275.0362 
z
" style="fill:#ff964f;fill-opacity:0.65;"/>
    <path clip-path="url(#p024a15aebe)" d="M 319.308134 175.31772 
L 317.875652 168.119028 
L 345.026048 159.314546 
L 347.234663 169.04761 
z
" style="fill:#7c06ff;fill-opacity:0.65;"/>
    <path clip-path="url(#p024a15aebe)" d="M 184.644979 239.810457 
L 191.042504 249.526789 
L 168.04634 260.264629 
L 158.569196 246.806419 
z
" style="fill:#d7db7e;fill-opacity:0.65;"/>
    <path clip-path="url(#p024a15aebe)" d="M 218.526559 242.825249 
L 224.441547 247.124717 
L 212.368026 265.25019 
L 200.48848 258.137512 
z
" style="fill:#e6cd73;fill-opacity:0.65;"/>
    <path clip-path="url(#p024a15aebe)" d="M 238.197286 252.680255 
L 245.115242 253.780708 
L 254.042335 275.0362 
L 240.099865 273.843468 
z
" style="fill:#ffa055;fill-opacity:0.65;"/>
    <path clip-path="url(#p024a15aebe)" d="M 262.348264 195.601877 
L 263.826169 193.047997 
L 291.500507 182.906578 
L 288.672963 188.12196 
z
" style="fill:#2586f5;fill-opacity:0.65;"/>
    <path clip-path="url(#p024a15aebe)" d="M 224.441547 247.124717 
L 231.148203 250.445337 
L 225.880967 270.553821 
L 212.368026 265.25019 
z
" style="fill:#f7be68;fill-opacity:0.65;"/>
    <path clip-path="url(#p024a15aebe)" d="M 231.148203 250.445337 
L 238.197286 252.680255 
L 240.099865 273.843468 
L 225.880967 270.553821 
z
" style="fill:#ffae5e;fill-opacity:0.65;"/>
    <path clip-path="url(#p024a15aebe)" d="M 298.206638 287.82226 
L 309.83759 280.964426 
L 334.668618 293.634415 
L 319.295194 303.079935 
z
" style="fill:#ff0302;fill-opacity:0.65;"/>
    <path clip-path="url(#p024a15aebe)" d="M 266.749649 274.175946 
L 277.362361 271.4266 
L 298.206638 287.82226 
L 282.286653 292.407994 
z
" style="fill:#ff4724;fill-opacity:0.65;"/>
    <path clip-path="url(#p024a15aebe)" d="M 211.869352 213.11621 
L 215.877877 212.412159 
L 195.092397 214.260135 
L 187.130566 213.857627 
z
" style="fill:#32e3da;fill-opacity:0.65;"/>
    <path clip-path="url(#p024a15aebe)" d="M 182.489534 213.023976 
L 187.130566 213.857627 
L 162.120755 215.673545 
L 155.342183 213.135681 
z
" style="fill:#34e4d9;fill-opacity:0.65;"/>
    <path clip-path="url(#p024a15aebe)" d="M 158.569196 246.806419 
L 168.04634 260.264629 
L 144.79771 270.49117 
L 132.32522 253.381325 
z
" style="fill:#e6cd73;fill-opacity:0.65;"/>
    <path clip-path="url(#p024a15aebe)" d="M 191.042504 249.526789 
L 200.48848 258.137512 
L 182.191397 272.16665 
L 168.04634 260.264629 
z
" style="fill:#eec66d;fill-opacity:0.65;"/>
    <path clip-path="url(#p024a15aebe)" d="M 259.148574 198.365336 
L 262.348264 195.601877 
L 288.672963 188.12196 
L 282.345721 193.526973 
z
" style="fill:#2586f5;fill-opacity:0.65;"/>
    <path clip-path="url(#p024a15aebe)" d="M 288.672963 188.12196 
L 291.500507 182.906578 
L 319.308134 175.31772 
L 315.264281 183.210134 
z
" style="fill:#573efd;fill-opacity:0.65;"/>
    <path clip-path="url(#p024a15aebe)" d="M 254.042335 275.0362 
L 266.749649 274.175946 
L 282.286653 292.407994 
L 263.123907 294.288732 
z
" style="fill:#ff562c;fill-opacity:0.65;"/>
    <path clip-path="url(#p024a15aebe)" d="M 215.877877 212.412159 
L 221.257714 211.43406 
L 205.88016 213.981329 
L 195.092397 214.260135 
z
" style="fill:#20d5e1;fill-opacity:0.65;"/>
    <path clip-path="url(#p024a15aebe)" d="M 155.342183 213.135681 
L 162.120755 215.673545 
L 136.84109 218.064324 
L 128.048739 213.633689 
z
" style="fill:#26dade;fill-opacity:0.65;"/>
    <path clip-path="url(#p024a15aebe)" d="M 200.48848 258.137512 
L 212.368026 265.25019 
L 200.088794 281.912755 
L 182.191397 272.16665 
z
" style="fill:#ffac5c;fill-opacity:0.65;"/>
    <path clip-path="url(#p024a15aebe)" d="M 254.429049 201.166161 
L 259.148574 198.365336 
L 282.345721 193.526973 
L 272.900831 198.771973 
z
" style="fill:#2389f5;fill-opacity:0.65;"/>
    <path clip-path="url(#p024a15aebe)" d="M 282.286653 292.407994 
L 298.206638 287.82226 
L 319.295194 303.079935 
L 298.062871 309.625001 
z
" style="fill:#ff0d06;fill-opacity:0.65;"/>
    <path clip-path="url(#p024a15aebe)" d="M 315.264281 183.210134 
L 319.308134 175.31772 
L 347.234663 169.04761 
L 342.111366 179.62798 
z
" style="fill:#8000ff;fill-opacity:0.65;"/>
    <path clip-path="url(#p024a15aebe)" d="M 240.099865 273.843468 
L 254.042335 275.0362 
L 263.123907 294.288732 
L 242.03775 293.189292 
z
" style="fill:#ff6835;fill-opacity:0.65;"/>
    <path clip-path="url(#p024a15aebe)" d="M 221.257714 211.43406 
L 227.655575 210.105775 
L 218.782669 212.83148 
L 205.88016 213.981329 
z
" style="fill:#10c6e6;fill-opacity:0.65;"/>
    <path clip-path="url(#p024a15aebe)" d="M 212.368026 265.25019 
L 225.880967 270.553821 
L 220.516327 289.024571 
L 200.088794 281.912755 
z
" style="fill:#ff934d;fill-opacity:0.65;"/>
    <path clip-path="url(#p024a15aebe)" d="M 187.130566 213.857627 
L 195.092397 214.260135 
L 173.978463 217.514012 
L 162.120755 215.673545 
z
" style="fill:#1bcfe3;fill-opacity:0.65;"/>
    <path clip-path="url(#p024a15aebe)" d="M 225.880967 270.553821 
L 240.099865 273.843468 
L 242.03775 293.189292 
L 220.516327 289.024571 
z
" style="fill:#ff7b40;fill-opacity:0.65;"/>
    <path clip-path="url(#p024a15aebe)" d="M 248.498337 203.849163 
L 254.429049 201.166161 
L 272.900831 198.771973 
L 260.953093 203.541 
z
" style="fill:#1e91f3;fill-opacity:0.65;"/>
    <path clip-path="url(#p024a15aebe)" d="M 168.04634 260.264629 
L 182.191397 272.16665 
L 163.623857 285.619983 
L 144.79771 270.49117 
z
" style="fill:#ffae5e;fill-opacity:0.65;"/>
    <path clip-path="url(#p024a15aebe)" d="M 227.655575 210.105775 
L 234.644033 208.388689 
L 232.920237 210.701566 
L 218.782669 212.83148 
z
" style="fill:#00b5eb;fill-opacity:0.65;"/>
    <path clip-path="url(#p024a15aebe)" d="M 282.345721 193.526973 
L 288.672963 188.12196 
L 315.264281 183.210134 
L 305.890568 191.256873 
z
" style="fill:#573efd;fill-opacity:0.65;"/>
    <path clip-path="url(#p024a15aebe)" d="M 241.751826 206.286958 
L 248.498337 203.849163 
L 260.953093 203.541 
L 247.311594 207.576753 
z
" style="fill:#159bf2;fill-opacity:0.65;"/>
    <path clip-path="url(#p024a15aebe)" d="M 234.644033 208.388689 
L 241.751826 206.286958 
L 247.311594 207.576753 
L 232.920237 210.701566 
z
" style="fill:#0ca7ef;fill-opacity:0.65;"/>
    <path clip-path="url(#p024a15aebe)" d="M 263.123907 294.288732 
L 282.286653 292.407994 
L 298.062871 309.625001 
L 272.368613 312.650298 
z
" style="fill:#ff1c0e;fill-opacity:0.65;"/>
    <path clip-path="url(#p024a15aebe)" d="M 182.191397 272.16665 
L 200.088794 281.912755 
L 187.593937 297.94355 
L 163.623857 285.619983 
z
" style="fill:#ff8e4a;fill-opacity:0.65;"/>
    <path clip-path="url(#p024a15aebe)" d="M 195.092397 214.260135 
L 205.88016 213.981329 
L 190.199232 218.245592 
L 173.978463 217.514012 
z
" style="fill:#04b9ea;fill-opacity:0.65;"/>
    <path clip-path="url(#p024a15aebe)" d="M 162.120755 215.673545 
L 173.978463 217.514012 
L 152.534379 221.537455 
L 136.84109 218.064324 
z
" style="fill:#09bee9;fill-opacity:0.65;"/>
    <path clip-path="url(#p024a15aebe)" d="M 272.900831 198.771973 
L 282.345721 193.526973 
L 305.890568 191.256873 
L 291.724519 198.922561 
z
" style="fill:#5541fd;fill-opacity:0.65;"/>
    <path clip-path="url(#p024a15aebe)" d="M 305.890568 191.256873 
L 315.264281 183.210134 
L 342.111366 179.62798 
L 329.777787 190.332439 
z
" style="fill:#8000ff;fill-opacity:0.65;"/>
    <path clip-path="url(#p024a15aebe)" d="M 242.03775 293.189292 
L 263.123907 294.288732 
L 272.368613 312.650298 
L 244.01287 311.753001 
z
" style="fill:#ff3219;fill-opacity:0.65;"/>
    <path clip-path="url(#p024a15aebe)" d="M 200.088794 281.912755 
L 220.516327 289.024571 
L 215.049286 306.798772 
L 187.593937 297.94355 
z
" style="fill:#ff6d38;fill-opacity:0.65;"/>
    <path clip-path="url(#p024a15aebe)" d="M 220.516327 289.024571 
L 242.03775 293.189292 
L 244.01287 311.753001 
L 215.049286 306.798772 
z
" style="fill:#ff4d27;fill-opacity:0.65;"/>
    <path clip-path="url(#p024a15aebe)" d="M 205.88016 213.981329 
L 218.782669 212.83148 
L 209.710535 217.547813 
L 190.199232 218.245592 
z
" style="fill:#11a0f1;fill-opacity:0.65;"/>
    <path clip-path="url(#p024a15aebe)" d="M 260.953093 203.541 
L 272.900831 198.771973 
L 291.724519 198.922561 
L 273.681988 205.718201 
z
" style="fill:#4e4dfc;fill-opacity:0.65;"/>
    <path clip-path="url(#p024a15aebe)" d="M 218.782669 212.83148 
L 232.920237 210.701566 
L 231.155478 215.227576 
L 209.710535 217.547813 
z
" style="fill:#2586f5;fill-opacity:0.65;"/>
    <path clip-path="url(#p024a15aebe)" d="M 247.311594 207.576753 
L 260.953093 203.541 
L 273.681988 205.718201 
L 253.002798 211.244167 
z
" style="fill:#435cfb;fill-opacity:0.65;"/>
    <path clip-path="url(#p024a15aebe)" d="M 232.920237 210.701566 
L 247.311594 207.576753 
L 253.002798 211.244167 
L 231.155478 215.227576 
z
" style="fill:#3570f8;fill-opacity:0.65;"/>
    <path clip-path="url(#p024a15aebe)" d="M 173.978463 217.514012 
L 190.199232 218.245592 
L 174.211389 223.465233 
L 152.534379 221.537455 
z
" style="fill:#139df1;fill-opacity:0.65;"/>
    <path clip-path="url(#p024a15aebe)" d="M 291.724519 198.922561 
L 305.890568 191.256873 
L 329.777787 190.332439 
L 310.899903 200.431063 
z
" style="fill:#7c06ff;fill-opacity:0.65;"/>
    <path clip-path="url(#p024a15aebe)" d="M 190.199232 218.245592 
L 209.710535 217.547813 
L 200.436079 223.380152 
L 174.211389 223.465233 
z
" style="fill:#2e7bf7;fill-opacity:0.65;"/>
    <path clip-path="url(#p024a15aebe)" d="M 273.681988 205.718201 
L 291.724519 198.922561 
L 310.899903 200.431063 
L 286.687423 209.248305 
z
" style="fill:#7313ff;fill-opacity:0.65;"/>
    <path clip-path="url(#p024a15aebe)" d="M 209.710535 217.547813 
L 231.155478 215.227576 
L 229.349062 220.991965 
L 200.436079 223.380152 
z
" style="fill:#435cfb;fill-opacity:0.65;"/>
    <path clip-path="url(#p024a15aebe)" d="M 253.002798 211.244167 
L 273.681988 205.718201 
L 286.687423 209.248305 
L 258.827295 216.228038 
z
" style="fill:#6726fe;fill-opacity:0.65;"/>
    <path clip-path="url(#p024a15aebe)" d="M 231.155478 215.227576 
L 253.002798 211.244167 
L 258.827295 216.228038 
L 229.349062 220.991965 
z
" style="fill:#573efd;fill-opacity:0.65;"/>
   </g>
  </g>
 </g>
 <defs>
  <clipPath id="p024a15aebe">
   <rect height="434.88" width="446.4" x="7.2" y="7.2"/>
  </clipPath>
 </defs>
</svg>
